<?xml version="1.0" encoding="UTF-8"?>
<svg version="1.1" xmlns="http://www.w3.org/2000/svg" width="500" height="500">
<path d="M0 0 C0 0.66 0 1.32 0 2 C0.61875 2.144375 1.2375 2.28875 1.875 2.4375 C4 3 4 3 6 4 C6 4.66 6 5.32 6 6 C6.70125 6.185625 7.4025 6.37125 8.125 6.5625 C14.95808222 9.97904111 17.96681265 16.11121377 20.3203125 23.1328125 C21.34597332 27.45945067 21.34468051 31.58617453 21 36 C21.60328125 36.29648438 22.2065625 36.59296875 22.828125 36.8984375 C25.29539759 38.14982396 27.64011573 39.5578485 30 41 C30.02578125 40.3709375 30.0515625 39.741875 30.078125 39.09375 C30.63145046 30.74356575 33.07927583 24.08074374 39 18 C46.02230974 12.76518728 51.17431392 10.31752164 60 11 C62.9375 12.0625 62.9375 12.0625 65 13 C65.66 12.67 66.32 12.34 67 12 C72.35961974 11.3869716 76.6294826 11.2132215 81.375 13.9375 C88.78259422 21.60126463 92 32.51346268 92 43 C92.66 43 93.32 43 94 43 C94 43.66 94 44.32 94 45 C94.66 45 95.32 45 96 45 C101 50.47619048 101 50.47619048 101 53 C101.66 53 102.32 53 103 53 C107 57.47058824 107 57.47058824 107 60 C107.66 60 108.32 60 109 60 C110.34106445 61.56958008 110.34106445 61.56958008 111.86328125 63.76953125 C112.41846436 64.57084473 112.97364746 65.3721582 113.5456543 66.19775391 C114.42024292 67.49205322 114.42024292 67.49205322 115.3125 68.8125 C115.90264893 69.68310059 116.49279785 70.55370117 117.10083008 71.45068359 C125.21723169 83.61340172 128.47933214 94.08743937 130.17822266 108.47631836 C130.83149028 113.92634624 131.65631202 119.33653096 132.5625 124.75 C132.68939209 125.5123999 132.81628418 126.2747998 132.94702148 127.06030273 C133.62983225 131.09455907 133.62983225 131.09455907 134.53442383 135.08300781 C135.10492329 137.43201765 135.13236359 139.58474284 135.125 142 C135.12757813 142.845625 135.13015625 143.69125 135.1328125 144.5625 C135 147 135 147 134.33984375 149.09375 C133.78007187 151.04673312 133.78007187 151.04673312 134.99609375 152.71875 C135.47175781 153.3065625 135.94742187 153.894375 136.4375 154.5 C139.96245097 159.79727268 139.8666293 164.83023546 139 171 C137.37362819 176.87805445 134.77891131 182.21337901 131 187 C130.34 187 129.68 187 129 187 C130.38853537 191.6782961 132.4138867 195.71892065 134.8125 199.9375 C145.72641289 219.78300283 149.87399358 243.97487389 144.4375 266.1875 C141.23698844 276.18485766 136.5265286 287.49677334 129 295 C128.34 295 127.68 295 127 295 C126.690625 295.804375 126.690625 295.804375 126.375 296.625 C124.46749574 299.91978009 121.95180616 302.59363628 119 305 C118.34 305 117.68 305 117 305 C117 305.66 117 306.32 117 307 C114.8828125 308.7265625 114.8828125 308.7265625 112.125 310.625 C110.76761719 311.57246094 110.76761719 311.57246094 109.3828125 312.5390625 C107 314 107 314 105 314 C105 314.66 105 315.32 105 316 C90.00003402 323.64526111 77.10856841 327.70202332 60 327 C59.773125 327.54269531 59.54625 328.08539063 59.3125 328.64453125 C57.60729818 331.70475952 55.37277164 334.14038565 53 336.6875 C52.50943115 337.21641846 52.0188623 337.74533691 51.51342773 338.2902832 C43.53009294 346.79256687 34.70337566 354.50549382 25 361 C24.34 361 23.68 361 23 361 C23 361.66 23 362.32 23 363 C19.21198677 365.66143844 15.05537191 367.77266649 11 370 C10.29278809 370.39316406 9.58557617 370.78632813 8.85693359 371.19140625 C-2.44090929 377.44430042 -13.81774705 382.71537301 -26 387 C-27.08152344 387.38800781 -28.16304688 387.77601563 -29.27734375 388.17578125 C-74.28979122 403.17993041 -126.33351486 397.99406288 -168.5625 377.25 C-169.366875 376.8375 -170.17125 376.425 -171 376 C-172.32 379.63 -173.64 383.26 -175 387 C-175.66 387 -176.32 387 -177 387 C-177 387.66 -177 388.32 -177 389 C-187.0747018 394.86571527 -195.13107127 398.01130459 -206.8359375 395.01953125 C-213.10894029 393.08093787 -218.76448286 391.00881863 -224 387 C-224 386.34 -224 385.68 -224 385 C-224.66 385 -225.32 385 -226 385 C-226 384.34 -226 383.68 -226 383 C-226.66 383 -227.32 383 -228 383 C-228 382.34 -228 381.68 -228 381 C-228.59296875 380.77957031 -229.1859375 380.55914062 -229.796875 380.33203125 C-234.45224348 377.51734924 -236.257189 371.94642475 -238 367 C-239.14149096 359.2104657 -238.37831028 351.17220634 -235 344 C-232.31783393 340.76764602 -229.34516702 338.49289517 -226 336 C-227.49001874 332.66297886 -229.14443848 330.30532043 -232 328 C-235.97968372 327.05998641 -239.83006904 326.73237327 -243.89453125 326.40625 C-257.87822334 325.2422895 -269.67500034 317.30407868 -280.46875 308.953125 C-282.26295257 307.56870944 -284.114388 306.25707466 -286 305 C-286 304.34 -286 303.68 -286 303 C-286.57105469 302.76023437 -287.14210938 302.52046875 -287.73046875 302.2734375 C-299.02929991 295.93364583 -306.02842383 280.80179269 -310 269 C-310.350625 267.9584375 -310.70125 266.916875 -311.0625 265.84375 C-312.2105457 261.13676264 -312.50213489 256.64067499 -312.6875 251.8125 C-312.74393677 250.41040283 -312.74393677 250.41040283 -312.80151367 248.97998047 C-313.55398516 227.14883022 -307.39266832 208.51719 -296 190 C-296.86625 188.4840625 -296.86625 188.4840625 -297.75 186.9375 C-298.11351562 186.29554688 -298.47703125 185.65359375 -298.8515625 184.9921875 C-299.57602985 183.73545842 -300.31861378 182.48884265 -301.0859375 181.2578125 C-305.04616018 174.79639655 -306.59532222 168.81818438 -305.55859375 161.25390625 C-304.97500813 158.8991587 -304.08950701 157.12772825 -302.9375 155 C-300.78285522 150.59836851 -300.80016091 146.55052953 -300.9375 141.75 C-301.11584131 135.38458694 -300.52442742 130.09350275 -298.8515625 123.91015625 C-297.53696843 118.51082463 -297.15154509 112.9518621 -296.5625 107.4375 C-293.95111111 84.33701199 -283.14270645 67.37650722 -267.046875 50.92578125 C-261.14829528 44.8805994 -258.39897661 40.34298777 -257 32 C-255.81884293 25.98683673 -253.95466136 20.76587395 -250 16 C-249.34 16 -248.68 16 -248 16 C-248 15.34 -248 14.68 -248 14 C-244.8572854 12.15220021 -242.62591932 11.77550831 -239 11.875 C-238.154375 11.89304687 -237.30875 11.91109375 -236.4375 11.9296875 C-235.633125 11.95289062 -234.82875 11.97609375 -234 12 C-230.10540926 12.21081851 -230.10540926 12.21081851 -227 11 C-218.84824697 10.01921709 -213.64402466 12.57065022 -207 17 C-207 17.66 -207 18.32 -207 19 C-206.34 19 -205.68 19 -205 19 C-205 19.66 -205 20.32 -205 21 C-204.34 21 -203.68 21 -203 21 C-202.505 21.99 -202.505 21.99 -202 23 C-197.78357609 21.56641587 -194.83687631 19.46353289 -191.375 16.6875 C-182.43081639 9.75554983 -171.96573846 5.05207866 -160.6875 3.5625 C-155.09347345 4.47315548 -152.32298127 8.77266307 -149 13 C-148.4423999 12.83395264 -147.8847998 12.66790527 -147.31030273 12.49682617 C-114.42851867 2.75895422 -78.70768123 -1.90285933 -45 7 C-44.66548828 6.12408203 -44.66548828 6.12408203 -44.32421875 5.23046875 C-41.21710807 -0.00304215 -34.36024136 -3.28747431 -28.6875 -5 C-18.37175996 -5 -9.52327229 -4.17857866 0 0 Z M105 228 C103.40678178 232.41355345 102.45747955 236.68789893 101.6875 241.3125 C99.59535994 253.17677034 95.92860448 264.62772387 92 276 C92.66 276 93.32 276 94 276 C94 275.34 94 274.68 94 274 C94.66 274 95.32 274 96 274 C103.96821128 265.84965817 107.93428642 253.80979639 108.25 242.5625 C108.14457943 237.59016303 107.12909958 232.82891695 106 228 C105.67 228 105.34 228 105 228 Z " fill="#F0F0F0" transform="translate(332,35)"/>
<path d="M0 0 C0 0.66 0 1.32 0 2 C0.61875 2.144375 1.2375 2.28875 1.875 2.4375 C4 3 4 3 6 4 C6 4.66 6 5.32 6 6 C6.70125 6.185625 7.4025 6.37125 8.125 6.5625 C14.95808222 9.97904111 17.96681265 16.11121377 20.3203125 23.1328125 C21.34597332 27.45945067 21.34468051 31.58617453 21 36 C21.60328125 36.29648438 22.2065625 36.59296875 22.828125 36.8984375 C25.29539759 38.14982396 27.64011573 39.5578485 30 41 C30.02578125 40.3709375 30.0515625 39.741875 30.078125 39.09375 C30.63145046 30.74356575 33.07927583 24.08074374 39 18 C46.02230974 12.76518728 51.17431392 10.31752164 60 11 C62.9375 12.0625 62.9375 12.0625 65 13 C65.66 12.67 66.32 12.34 67 12 C72.35961974 11.3869716 76.6294826 11.2132215 81.375 13.9375 C88.78259422 21.60126463 92 32.51346268 92 43 C92.66 43 93.32 43 94 43 C94 43.66 94 44.32 94 45 C94.66 45 95.32 45 96 45 C101 50.47619048 101 50.47619048 101 53 C101.66 53 102.32 53 103 53 C107 57.47058824 107 57.47058824 107 60 C107.66 60 108.32 60 109 60 C110.34106445 61.56958008 110.34106445 61.56958008 111.86328125 63.76953125 C112.41846436 64.57084473 112.97364746 65.3721582 113.5456543 66.19775391 C114.42024292 67.49205322 114.42024292 67.49205322 115.3125 68.8125 C115.90264893 69.68310059 116.49279785 70.55370117 117.10083008 71.45068359 C125.21723169 83.61340172 128.47933214 94.08743937 130.17822266 108.47631836 C130.83149028 113.92634624 131.65631202 119.33653096 132.5625 124.75 C132.68939209 125.5123999 132.81628418 126.2747998 132.94702148 127.06030273 C133.62983225 131.09455907 133.62983225 131.09455907 134.53442383 135.08300781 C135.10492329 137.43201765 135.13236359 139.58474284 135.125 142 C135.12757813 142.845625 135.13015625 143.69125 135.1328125 144.5625 C135 147 135 147 134.33984375 149.09375 C133.78007187 151.04673312 133.78007187 151.04673312 134.99609375 152.71875 C135.47175781 153.3065625 135.94742187 153.894375 136.4375 154.5 C139.96245097 159.79727268 139.8666293 164.83023546 139 171 C137.37362819 176.87805445 134.77891131 182.21337901 131 187 C130.34 187 129.68 187 129 187 C130.38853537 191.6782961 132.4138867 195.71892065 134.8125 199.9375 C145.72641289 219.78300283 149.87399358 243.97487389 144.4375 266.1875 C141.23698844 276.18485766 136.5265286 287.49677334 129 295 C128.34 295 127.68 295 127 295 C126.690625 295.804375 126.690625 295.804375 126.375 296.625 C124.46749574 299.91978009 121.95180616 302.59363628 119 305 C118.34 305 117.68 305 117 305 C117 305.66 117 306.32 117 307 C114.8828125 308.7265625 114.8828125 308.7265625 112.125 310.625 C110.76761719 311.57246094 110.76761719 311.57246094 109.3828125 312.5390625 C107 314 107 314 105 314 C105 314.66 105 315.32 105 316 C90.00003402 323.64526111 77.10856841 327.70202332 60 327 C59.773125 327.54269531 59.54625 328.08539063 59.3125 328.64453125 C57.60729818 331.70475952 55.37277164 334.14038565 53 336.6875 C52.50943115 337.21641846 52.0188623 337.74533691 51.51342773 338.2902832 C43.53009294 346.79256687 34.70337566 354.50549382 25 361 C24.34 361 23.68 361 23 361 C23 361.66 23 362.32 23 363 C19.21198677 365.66143844 15.05537191 367.77266649 11 370 C10.29278809 370.39316406 9.58557617 370.78632813 8.85693359 371.19140625 C-2.44090929 377.44430042 -13.81774705 382.71537301 -26 387 C-27.08152344 387.38800781 -28.16304688 387.77601563 -29.27734375 388.17578125 C-74.28979122 403.17993041 -126.33351486 397.99406288 -168.5625 377.25 C-169.366875 376.8375 -170.17125 376.425 -171 376 C-172.32 379.63 -173.64 383.26 -175 387 C-175.66 387 -176.32 387 -177 387 C-177 387.66 -177 388.32 -177 389 C-187.0747018 394.86571527 -195.13107127 398.01130459 -206.8359375 395.01953125 C-213.10894029 393.08093787 -218.76448286 391.00881863 -224 387 C-224 386.34 -224 385.68 -224 385 C-224.66 385 -225.32 385 -226 385 C-226 384.34 -226 383.68 -226 383 C-226.66 383 -227.32 383 -228 383 C-228 382.34 -228 381.68 -228 381 C-228.59296875 380.77957031 -229.1859375 380.55914062 -229.796875 380.33203125 C-234.45224348 377.51734924 -236.257189 371.94642475 -238 367 C-239.14149096 359.2104657 -238.37831028 351.17220634 -235 344 C-232.31783393 340.76764602 -229.34516702 338.49289517 -226 336 C-227.49001874 332.66297886 -229.14443848 330.30532043 -232 328 C-235.97968372 327.05998641 -239.83006904 326.73237327 -243.89453125 326.40625 C-257.87822334 325.2422895 -269.67500034 317.30407868 -280.46875 308.953125 C-282.26295257 307.56870944 -284.114388 306.25707466 -286 305 C-286 304.34 -286 303.68 -286 303 C-286.57105469 302.76023437 -287.14210938 302.52046875 -287.73046875 302.2734375 C-299.02929991 295.93364583 -306.02842383 280.80179269 -310 269 C-310.350625 267.9584375 -310.70125 266.916875 -311.0625 265.84375 C-312.2105457 261.13676264 -312.50213489 256.64067499 -312.6875 251.8125 C-312.74393677 250.41040283 -312.74393677 250.41040283 -312.80151367 248.97998047 C-313.55398516 227.14883022 -307.39266832 208.51719 -296 190 C-296.86625 188.4840625 -296.86625 188.4840625 -297.75 186.9375 C-298.11351562 186.29554688 -298.47703125 185.65359375 -298.8515625 184.9921875 C-299.57602985 183.73545842 -300.31861378 182.48884265 -301.0859375 181.2578125 C-305.04616018 174.79639655 -306.59532222 168.81818438 -305.55859375 161.25390625 C-304.97500813 158.8991587 -304.08950701 157.12772825 -302.9375 155 C-300.78285522 150.59836851 -300.80016091 146.55052953 -300.9375 141.75 C-301.11584131 135.38458694 -300.52442742 130.09350275 -298.8515625 123.91015625 C-297.53696843 118.51082463 -297.15154509 112.9518621 -296.5625 107.4375 C-293.95111111 84.33701199 -283.14270645 67.37650722 -267.046875 50.92578125 C-261.14829528 44.8805994 -258.39897661 40.34298777 -257 32 C-255.81884293 25.98683673 -253.95466136 20.76587395 -250 16 C-249.34 16 -248.68 16 -248 16 C-248 15.34 -248 14.68 -248 14 C-244.8572854 12.15220021 -242.62591932 11.77550831 -239 11.875 C-238.154375 11.89304687 -237.30875 11.91109375 -236.4375 11.9296875 C-235.633125 11.95289062 -234.82875 11.97609375 -234 12 C-230.10540926 12.21081851 -230.10540926 12.21081851 -227 11 C-218.84824697 10.01921709 -213.64402466 12.57065022 -207 17 C-207 17.66 -207 18.32 -207 19 C-206.34 19 -205.68 19 -205 19 C-205 19.66 -205 20.32 -205 21 C-204.34 21 -203.68 21 -203 21 C-202.505 21.99 -202.505 21.99 -202 23 C-197.78357609 21.56641587 -194.83687631 19.46353289 -191.375 16.6875 C-182.43081639 9.75554983 -171.96573846 5.05207866 -160.6875 3.5625 C-155.09347345 4.47315548 -152.32298127 8.77266307 -149 13 C-148.4423999 12.83395264 -147.8847998 12.66790527 -147.31030273 12.49682617 C-114.42851867 2.75895422 -78.70768123 -1.90285933 -45 7 C-44.66548828 6.12408203 -44.66548828 6.12408203 -44.32421875 5.23046875 C-41.21710807 -0.00304215 -34.36024136 -3.28747431 -28.6875 -5 C-18.37175996 -5 -9.52327229 -4.17857866 0 0 Z M-38 7 C-38 7.66 -38 8.32 -38 9 C-38.66 9 -39.32 9 -40 9 C-43.7581716 12.53040363 -44.8640227 15.84922536 -45.23828125 20.84765625 C-45.15160567 23.32643055 -45.15160567 23.32643055 -42.75 25.9375 C-40.87257564 27.34556827 -38.95263936 28.69824042 -37 30 C-36.3125 32.125 -36.3125 32.125 -36 34 C-41.79624069 32.48193696 -45.72219469 30.00256154 -49.375 25.1875 C-50.35130408 21.77043572 -50.11814819 18.54444557 -50 15 C-55.44033025 13.14534196 -60.59725469 12.60245498 -66.328125 12.24609375 C-69 12 -69 12 -72 11 C-94.72120888 9.3288144 -118.31396898 11.94324828 -140 19 C-140.7110791 19.23025879 -141.4221582 19.46051758 -142.15478516 19.69775391 C-158.78448338 25.18220369 -173.84361453 33.02017417 -188.5 42.5625 C-189.30759766 43.06797363 -190.11519531 43.57344727 -190.94726562 44.09423828 C-196.65853383 47.95290466 -198.46958441 51.3679425 -200 58 C-200.60348227 59.73679346 -201.22404309 61.46793684 -201.875 63.1875 C-202.16117187 63.96480469 -202.44734375 64.74210937 -202.7421875 65.54296875 C-204 68 -204 68 -206.5078125 70.78515625 C-209.54203325 74.28939686 -210.19835583 77.77369499 -211 82.25 C-212.05063632 87.45408123 -213.17475108 91.89012382 -215.8125 96.5625 C-217.81469895 100.21895479 -218.28991893 102.3526695 -217.40625 106.55859375 C-213.97200306 127.19709701 -220.03195311 150.53869784 -231.78515625 167.58984375 C-232.80924443 168.92866353 -233.85506294 170.25151162 -234.93359375 171.546875 C-236.19721516 172.96832587 -236.19721516 172.96832587 -236 175 C-232.94441577 178.02517909 -232.94441577 178.02517909 -229 179 C-227.14027017 185.26908927 -227.05687103 192.35923888 -229.25 198.5 C-232.17604756 202.68006795 -235.26233149 205.98397084 -240 208 C-245.73113207 208.52700065 -251.25931556 207.97043574 -256.9375 207.1875 C-259.60564776 206.84821368 -259.60564776 206.84821368 -262 207 C-264.70732203 209.02928014 -264.70732203 209.02928014 -266 212 C-266.52980469 212.92619141 -266.52980469 212.92619141 -267.0703125 213.87109375 C-270.66591495 222.10472121 -266.95666733 232.76319952 -265 241 C-264.75636719 242.26328125 -264.51273438 243.5265625 -264.26171875 244.828125 C-262.45759728 253.93220498 -259.49367373 262.30206977 -255.9375 270.875 C-255.50171631 271.92800293 -255.06593262 272.98100586 -254.61694336 274.06591797 C-252.19432362 280.13486545 -252.19432362 280.13486545 -248 285 C-245.96658113 285.77813652 -245.96658113 285.77813652 -243.8125 286.1875 C-242.554375 286.455625 -241.29625 286.72375 -240 287 C-239.67 288.65 -239.34 290.3 -239 292 C-249.43024874 291.95384846 -258.09772104 288.05958954 -265.75 281 C-276.3509681 269.49313099 -281.79819352 255.51802696 -281.2890625 239.78125 C-280.08456273 228.19200898 -276.5093436 217.23060144 -269.953125 207.59375 C-268.82891405 206.02342353 -268.82891405 206.02342353 -269 204 C-270.10859375 203.44570312 -271.2171875 202.89140625 -272.359375 202.3203125 C-277.90625 199.546875 -283.453125 196.7734375 -289 194 C-295.87935577 205.57641657 -295.87935577 205.57641657 -301 218 C-301.37125 219.03640625 -301.7425 220.0728125 -302.125 221.140625 C-308.03914273 239.78660279 -306.60103221 260.13132919 -297.9375 277.625 C-291.34471469 289.0674888 -282.6082273 298.18257689 -272 306 C-271.25105469 306.56332031 -270.50210938 307.12664062 -269.73046875 307.70703125 C-260.30637749 314.41426737 -248.67620911 319.47657996 -237 319 C-237.52268466 316.23723823 -238.10869587 313.6739124 -239 311 C-239.03954234 308.66700175 -239.04401732 306.33291811 -239 304 C-237.02 304 -235.04 304 -233 304 C-233.0825 304.825 -233.165 305.65 -233.25 306.5 C-232.73333893 313.73325503 -228.19880539 319.38583797 -224.1875 325.1875 C-223.78547363 325.78175781 -223.38344727 326.37601562 -222.96923828 326.98828125 C-220.6740169 330.21624731 -218.52413133 332.4681791 -215.203125 334.65625 C-212 337 -212 337 -211.31640625 339.23828125 C-211.54427083 341.15885417 -211.77213542 343.07942708 -212 345 C-212.845625 344.855625 -213.69125 344.71125 -214.5625 344.5625 C-215.696875 344.376875 -216.83125 344.19125 -218 344 C-219.19625 343.731875 -220.3925 343.46375 -221.625 343.1875 C-225.0333609 342.63322932 -225.0333609 342.63322932 -227.3125 344.75 C-232.24014018 351.32018691 -232.96714044 357.90714669 -232 366 C-228.76920292 375.15633969 -221.71616383 381.61100986 -213.2421875 385.93359375 C-212.13230469 386.46146484 -212.13230469 386.46146484 -211 387 C-210.36320312 387.32097656 -209.72640625 387.64195312 -209.0703125 387.97265625 C-202.29522135 390.99474048 -194.54657692 391.22518112 -187.5625 388.8125 C-183.58676538 386.00039502 -179.41834456 382.82237149 -178 378 C-178 372.19605953 -180.01675927 369.15329616 -183.625 364.89453125 C-185.06891195 362.9050503 -185.57424304 361.40020487 -186 359 C-181.70674363 360.76133595 -177.65413753 362.68119361 -173.61206055 364.95605469 C-166.86647893 368.73789643 -160.60606942 371.40533487 -153 373 C-151.56849745 373.32719082 -150.13755172 373.65682298 -148.70703125 373.98828125 C-144.81824549 374.88293053 -140.9210296 375.73067148 -137.01806641 376.56103516 C-135.38547987 376.91615137 -133.75978624 377.30286257 -132.13671875 377.69921875 C-108.81195685 382.94450013 -81.85266912 377.70314958 -59.16015625 371.80859375 C-56.82084911 371.21003185 -54.47296586 370.64476849 -52.12109375 370.09765625 C-43.68126242 368.12359742 -35.91482398 365.60822858 -28 362 C-27.2471875 361.68289063 -26.494375 361.36578125 -25.71875 361.0390625 C-5.52253177 352.47762216 12.65646996 339.49708542 29 325 C30.40572266 323.92298828 30.40572266 323.92298828 31.83984375 322.82421875 C32.55269531 322.22222656 33.26554687 321.62023437 34 321 C34 320.34 34 319.68 34 319 C34.66 319 35.32 319 36 319 C36 318.34 36 317.68 36 317 C36.66 317 37.32 317 38 317 C40.78322667 314.01082633 43.25769838 310.770113 45.77539062 307.55566406 C46.89223581 306.13689661 48.0309517 304.73541536 49.171875 303.3359375 C60.83270759 288.56838674 70.6709343 270.72138397 77 253 C77.46792969 252.14535156 77.46792969 252.14535156 77.9453125 251.2734375 C84.02294168 238.17277015 83.5151335 223.07106981 83 209 C81.97483276 208.92108521 81.97483276 208.92108521 80.92895508 208.84057617 C80.03072021 208.76299072 79.13248535 208.68540527 78.20703125 208.60546875 C77.31733643 208.53223389 76.4276416 208.45899902 75.51098633 208.38354492 C70.5196993 207.62114221 67.4250406 204.63303562 64.1875 201 C60.56238432 196.02841278 60.42471686 191.01432372 61 185 C62.69760507 180.26457533 64.908082 177.87540184 69 175 C67.76003051 171.63102629 66.35613211 168.89876247 64.25 166 C52.62906546 148.73866065 50.35318676 131.48155383 51.14697266 111.1015625 C51.32608585 104.82665874 51.3171482 100.32015976 48.04248047 94.89599609 C45.70843287 90.65098119 45.04481656 85.58982549 44.02148438 80.890625 C42.68168281 75.27879622 40.92798715 72.21872006 37 68 C35.671875 65.875 35.671875 65.875 34.75 64 C34.43546875 63.38125 34.1209375 62.7625 33.796875 62.125 C33 60 33 60 32.78515625 57.08984375 C31.69875783 52.81451463 29.10457029 51.04460644 25.6875 48.5625 C25.10548828 48.10423828 24.52347656 47.64597656 23.92382812 47.17382812 C20.6626096 44.64142001 20.6626096 44.64142001 16.70703125 44.15234375 C15.47044126 44.76639416 14.23489682 45.38255159 13 46 C13 46.66 13 47.32 13 48 C9.23416966 48.87545133 5.73819781 49.1346822 1.875 49.125 C0.32425781 49.12886719 0.32425781 49.12886719 -1.2578125 49.1328125 C-4 49 -4 49 -7 48 C-7.6875 45.9375 -7.6875 45.9375 -8 44 C-6.90300781 44.04640625 -5.80601562 44.0928125 -4.67578125 44.140625 C-3.2213815 44.1781579 -1.76695217 44.21455643 -0.3125 44.25 C0.7693457 44.30027344 0.7693457 44.30027344 1.87304688 44.3515625 C5.71921456 44.42181214 7.5553411 44.2808372 10.89453125 42.171875 C14.55457642 38.39639241 15.35333643 36.04489068 15.5 30.875 C15.3780213 24.02132169 13.7031395 19.94381189 9 15 C-0.96388878 5.87165745 -12.05933415 1.4681186 -25.53125 1.59765625 C-30.48870529 2.1726764 -34.0314131 4.060306 -38 7 Z M105 228 C103.40678178 232.41355345 102.45747955 236.68789893 101.6875 241.3125 C99.59535994 253.17677034 95.92860448 264.62772387 92 276 C92.66 276 93.32 276 94 276 C94 275.34 94 274.68 94 274 C94.66 274 95.32 274 96 274 C103.96821128 265.84965817 107.93428642 253.80979639 108.25 242.5625 C108.14457943 237.59016303 107.12909958 232.82891695 106 228 C105.67 228 105.34 228 105 228 Z " fill="#101010" transform="translate(332,35)"/>
<path d="M0 0 C8.6831611 6.68075498 10.53360522 16.55316577 13.17578125 26.74609375 C13.39363281 27.57625 13.61148438 28.40640625 13.8359375 29.26171875 C17.72313079 45.27119631 18.68674267 66.0477156 10.17578125 80.74609375 C7.20080864 84.08105163 4.42629904 86.32925449 0.17578125 87.74609375 C-12.73617497 87.97784681 -23.29439406 84.48055995 -35.13671875 79.55859375 C-46.07452202 75.13758621 -57.93727584 74.92834903 -69.57421875 74.12109375 C-70.49996704 74.05539185 -71.42571533 73.98968994 -72.3795166 73.92199707 C-109.94786819 71.14705946 -109.94786819 71.14705946 -147.01171875 76.18359375 C-148.38166992 76.5094043 -148.38166992 76.5094043 -149.77929688 76.84179688 C-153.66892301 77.79628877 -156.4529571 78.49858598 -159.82421875 80.74609375 C-163.61096642 81.48173581 -167.04280142 81.52663736 -170.82421875 80.74609375 C-175.79222214 77.1937515 -178.34913235 72.59863562 -179.82421875 66.74609375 C-181.73110189 48.78679398 -177.51915141 34.46478816 -168.82421875 18.74609375 C-168.47488281 18.08480469 -168.12554687 17.42351562 -167.765625 16.7421875 C-166.2618297 14.15266447 -165.01328931 12.84062903 -162.32421875 11.49609375 C-160.59171875 11.12484375 -160.59171875 11.12484375 -158.82421875 10.74609375 C-158.08300781 10.56304687 -157.34179688 10.38 -156.578125 10.19140625 C-144.18732989 7.56578058 -129.30686109 7.00729845 -117.01171875 10.24609375 C-101.01760024 14.30778363 -83.38043831 12.785945 -67.82421875 7.74609375 C-65.8687521 7.19416766 -63.91061347 6.65156805 -61.94921875 6.12109375 C-61.08554687 5.88132812 -60.221875 5.6415625 -59.33203125 5.39453125 C-56.8399591 4.75016369 -54.35207742 4.22947738 -51.82421875 3.74609375 C-45.05635439 2.44416754 -38.26678929 0.93042555 -31.94921875 -1.87890625 C-22.07001295 -6.2257568 -8.93508569 -6.1416756 0 0 Z " fill="#0C0C0C" transform="translate(323.82421875,287.25390625)"/>
<path d="M0 0 C10.34078471 8.0669984 15.47954554 21.17205316 17.16796875 33.8840332 C20.19125478 63.06684145 21.44855519 98.93758154 2.890625 123.109375 C0.07205613 126.46352605 -2.91404347 129.57333463 -6.14453125 132.53125 C-5.07995768 134.76222591 -4.14792115 136.52733857 -2.51953125 138.40625 C-0.69116606 141.23190529 -0.85127217 143.23208541 -1.14453125 146.53125 C-2.14453125 147.53125 -2.14453125 147.53125 -4.76953125 148.09375 C-9.33015731 147.33364566 -10.424582 145.25307149 -13.234375 141.7578125 C-23.17016433 130.17621758 -38.12578045 125.20416693 -52.14453125 120.53125 C-54.03923355 120.40493651 -55.93755281 120.32973759 -57.8359375 120.28515625 C-58.94517578 120.25228516 -60.05441406 120.21941406 -61.19726562 120.18554688 C-63.54091428 120.12424944 -65.88467142 120.06697061 -68.22851562 120.01367188 C-69.33646484 119.97951172 -70.44441406 119.94535156 -71.5859375 119.91015625 C-73.11263062 119.87257202 -73.11263062 119.87257202 -74.67016602 119.83422852 C-77.14453125 119.53125 -77.14453125 119.53125 -79.14453125 117.53125 C-78.81481646 114.23410207 -78.52184735 112.9085661 -76.14453125 110.53125 C-72.88671875 110.3359375 -72.88671875 110.3359375 -69.01953125 110.40625 C-67.09753906 110.43332031 -67.09753906 110.43332031 -65.13671875 110.4609375 C-63.65558594 110.49574219 -63.65558594 110.49574219 -62.14453125 110.53125 C-62.30679199 109.37101318 -62.46905273 108.21077637 -62.63623047 107.01538086 C-63.1456062 102.92549249 -63.27374392 98.90978571 -63.27734375 94.78515625 C-63.27830048 94.08857407 -63.2792572 93.39199188 -63.28024292 92.67430115 C-63.28091721 91.21979684 -63.27911593 89.76528938 -63.27490234 88.31079102 C-63.26948574 86.07496543 -63.27490171 83.83933554 -63.28125 81.60351562 C-63.2805902 80.18489539 -63.27931108 78.76627528 -63.27734375 77.34765625 C-63.27621582 76.06318604 -63.27508789 74.77871582 -63.27392578 73.45532227 C-63.14453125 70.53125 -63.14453125 70.53125 -62.14453125 69.53125 C-60.33934199 69.16036039 -58.52491697 68.83383696 -56.70703125 68.53125 C-52.79770587 67.92569481 -52.79770587 67.92569481 -49.14453125 66.53125 C-47.06603603 66.2628144 -44.98115286 66.04313082 -42.89453125 65.84765625 C-41.0228125 65.66299805 -41.0228125 65.66299805 -39.11328125 65.47460938 C-36.46781653 65.2207385 -33.82197763 64.97073689 -31.17578125 64.72460938 C-29.92796875 64.60021484 -28.68015625 64.47582031 -27.39453125 64.34765625 C-26.2446875 64.23881104 -25.09484375 64.12996582 -23.91015625 64.01782227 C-21.01119533 63.78050558 -21.01119533 63.78050558 -19.14453125 61.53125 C-29.05380967 55.37886785 -29.05380967 55.37886785 -39.14453125 49.53125 C-39.14453125 48.87125 -39.14453125 48.21125 -39.14453125 47.53125 C-39.82902344 47.29664063 -40.51351562 47.06203125 -41.21875 46.8203125 C-44.78497788 45.24907725 -47.83134495 43.19911687 -50.95703125 40.90625 C-51.55451172 40.50535156 -52.15199219 40.10445312 -52.76757812 39.69140625 C-55.08798802 37.97828078 -56.91896878 36.48029209 -57.60351562 33.60009766 C-57.92014169 22.78118941 -50.01038907 10.39445363 -42.83203125 2.71875 C-30.21133376 -9.14470564 -14.01765896 -9.60043674 0 0 Z " fill="#020202" transform="translate(177.14453125,133.46875)"/>
<path d="M0 0 C17.14208783 13.4948351 23.67352878 34.03613441 26.37329102 55.12719727 C28.13475889 72.0571858 30.40552177 95.90843469 24.9375 112.3125 C26.27554688 112.27769531 26.27554688 112.27769531 27.640625 112.2421875 C29.39632812 112.21511719 29.39632812 112.21511719 31.1875 112.1875 C32.34765625 112.16429687 33.5078125 112.14109375 34.703125 112.1171875 C37.76536046 112.3021051 39.37952751 112.70426977 41.9375 114.3125 C42.0625 116.6875 42.0625 116.6875 41.9375 119.3125 C39.3892449 121.8607551 38.41383022 121.57398606 34.87890625 121.62109375 C33.85216797 121.64623047 32.82542969 121.67136719 31.76757812 121.69726562 C29.62440023 121.73185367 27.48116731 121.76321525 25.33789062 121.79101562 C18.10261741 121.97515355 11.83336685 123.17048613 4.9375 125.3125 C3.37785365 125.71943185 1.81554462 126.1163852 0.25 126.5 C-1.3896875 126.9021875 -1.3896875 126.9021875 -3.0625 127.3125 C-3.0625 127.9725 -3.0625 128.6325 -3.0625 129.3125 C-3.64515625 129.54582031 -4.2278125 129.77914062 -4.828125 130.01953125 C-13.87965317 134.04717665 -20.51405444 140.49602104 -27.25 147.62890625 C-29.0625 149.3125 -29.0625 149.3125 -31.6875 149.6875 C-34.0625 149.3125 -34.0625 149.3125 -36.0625 147.3125 C-35.96995656 143.14804533 -35.30437812 141.58387545 -32.5 138.4375 C-31.695625 137.73625 -30.89125 137.035 -30.0625 136.3125 C-30.85641831 133.02183961 -30.85641831 133.02183961 -34.125 130.875 C-42.67198278 123.76713958 -47.24618135 113.50414168 -51.0625 103.3125 C-51.40925781 102.53680664 -51.75601562 101.76111328 -52.11328125 100.96191406 C-53.10989688 98.18020809 -53.29388208 96.17013989 -53.2578125 93.23046875 C-53.25136719 92.29912109 -53.24492187 91.36777344 -53.23828125 90.40820312 C-53.22152344 89.44849609 -53.20476562 88.48878906 -53.1875 87.5 C-53.17847656 86.52095703 -53.16945313 85.54191406 -53.16015625 84.53320312 C-53.13667182 82.12604939 -53.1038284 79.71940257 -53.0625 77.3125 C-47.47056582 74.75519329 -41.86924821 72.39808648 -36.0625 70.375 C-34.99140991 69.99867432 -34.99140991 69.99867432 -33.89868164 69.61474609 C-26.0385195 66.89382182 -18.06433411 64.57584732 -10.0625 62.3125 C-10.0625 61.6525 -10.0625 60.9925 -10.0625 60.3125 C-10.8875 60.044375 -11.7125 59.77625 -12.5625 59.5 C-20.15257081 56.9247974 -27.22014438 53.87452174 -34.34375 50.203125 C-39.46535528 47.57174906 -44.65013998 45.29009308 -50.0625 43.3125 C-50.0625 42.6525 -50.0625 41.9925 -50.0625 41.3125 C-50.7225 41.3125 -51.3825 41.3125 -52.0625 41.3125 C-52.88588715 27.91873562 -50.81701773 17.92841292 -41.9453125 7.34765625 C-30.01657488 -5.54626968 -15.89933303 -8.76085698 0 0 Z " fill="#030303" transform="translate(346.0625,131.6875)"/>
<path d="M0 0 C3.38412138 1.58008609 4.52292703 4.66304155 6.125 7.8671875 C6.47385254 8.5468457 6.82270508 9.22650391 7.18212891 9.92675781 C16.42981861 28.28378936 19.9429649 50.93932442 14.21484375 71.02734375 C6.37772345 92.34768178 -9.28274381 108.49937417 -29.70703125 118.359375 C-38.66981474 122.32978236 -47.99798951 125.27228183 -57.875 124.9921875 C-57.545 123.9403125 -57.215 122.8884375 -56.875 121.8046875 C-56.03533218 118.60345393 -55.67749096 116.2510867 -55.875 112.9921875 C-58.29767086 112.94051223 -58.29767086 112.94051223 -60.875 113.9921875 C-62.38961468 116.86829271 -62.38961468 116.86829271 -63.1171875 119.00390625 C-64.34016568 122.21264798 -66.12877173 125.04166387 -67.875 127.9921875 C-68.535 127.9921875 -69.195 127.9921875 -69.875 127.9921875 C-70.13603516 128.57774414 -70.39707031 129.16330078 -70.66601562 129.76660156 C-71.94892143 132.12826742 -73.32567091 133.70132041 -75.21875 135.6015625 C-76.21467163 136.60388916 -76.21467163 136.60388916 -77.23071289 137.62646484 C-77.93832764 138.32465332 -78.64594238 139.0228418 -79.375 139.7421875 C-80.10259521 140.46229004 -80.83019043 141.18239258 -81.57983398 141.92431641 C-115.95728747 175.6181165 -161.54507371 192.01034236 -209.125 192.2421875 C-210.14746323 192.25035995 -210.14746323 192.25035995 -211.19058228 192.25869751 C-220.28949173 192.31279654 -228.92919244 191.63435362 -237.875 189.9921875 C-239.31235914 189.75435548 -240.74983934 189.51725257 -242.1875 189.28125 C-273.16440568 183.70278182 -273.16440568 183.70278182 -280.875 175.9921875 C-275.92178162 176.75603835 -271.07055571 177.8181978 -266.1875 178.9296875 C-264.56531078 179.28869526 -262.94291557 179.64677361 -261.3203125 180.00390625 C-258.86938759 180.54396648 -256.42991266 181.10134849 -253.9921875 181.69921875 C-230.6557403 186.91427689 -203.73650835 181.69763314 -181.03515625 175.80078125 C-178.69584911 175.20221935 -176.34796586 174.63695599 -173.99609375 174.08984375 C-165.55626242 172.11578492 -157.78982398 169.60041608 -149.875 165.9921875 C-148.74578125 165.51652344 -148.74578125 165.51652344 -147.59375 165.03125 C-127.34098469 156.44583862 -106.38838062 143.21679868 -91.16796875 127.1953125 C-89.875 125.9921875 -89.875 125.9921875 -87.875 125.9921875 C-87.875 125.3321875 -87.875 124.6721875 -87.875 123.9921875 C-87.215 123.9921875 -86.555 123.9921875 -85.875 123.9921875 C-85.875 123.3321875 -85.875 122.6721875 -85.875 121.9921875 C-85.215 121.9921875 -84.555 121.9921875 -83.875 121.9921875 C-83.65070313 121.45464844 -83.42640625 120.91710937 -83.1953125 120.36328125 C-81.45085465 117.23048269 -79.11840659 114.71964517 -76.75 112.0546875 C-71.32859084 105.78634909 -66.98326026 99.19994708 -62.875 91.9921875 C-62.50101074 91.34282227 -62.12702148 90.69345703 -61.74169922 90.02441406 C-55.75403785 79.62075977 -49.97081255 69.30443168 -45.875 57.9921875 C-45.56046875 57.41984375 -45.2459375 56.8475 -44.921875 56.2578125 C-38.95957788 43.35433365 -39.13477448 27.89012231 -38.875 13.9921875 C-42.175 13.9921875 -45.475 13.9921875 -48.875 13.9921875 C-48.875 13.6621875 -48.875 13.3321875 -48.875 12.9921875 C-45.27215934 12.73748625 -41.66801891 12.51783267 -38.0625 12.3046875 C-37.03833984 12.23185547 -36.01417969 12.15902344 -34.95898438 12.08398438 C-33.97607422 12.02919922 -32.99316406 11.97441406 -31.98046875 11.91796875 C-31.07449951 11.86036377 -30.16853027 11.80275879 -29.23510742 11.7434082 C-26.875 11.9921875 -26.875 11.9921875 -25.07373047 13.27587891 C-23.00441301 16.23866948 -23.59149254 19.5981879 -23.8125 23.0546875 C-23.86043701 23.87525635 -23.90837402 24.6958252 -23.95776367 25.54125977 C-25.47474883 44.99996053 -30.72967712 76.2557168 -44.875 90.9921875 C-46.195 90.9921875 -47.515 90.9921875 -48.875 90.9921875 C-48.875 92.6421875 -48.875 94.2921875 -48.875 95.9921875 C-41.40369607 96.54561742 -34.7757258 94.93176324 -28.703125 90.35546875 C-26.875 88.9921875 -26.875 88.9921875 -24.875 88.9921875 C-24.875 88.3321875 -24.875 87.6721875 -24.875 86.9921875 C-24.215 86.9921875 -23.555 86.9921875 -22.875 86.9921875 C-22.875 86.3321875 -22.875 85.6721875 -22.875 84.9921875 C-22.215 84.9921875 -21.555 84.9921875 -20.875 84.9921875 C-20.6275 84.4353125 -20.38 83.8784375 -20.125 83.3046875 C-18.875 80.9921875 -18.875 80.9921875 -16.9609375 78.74609375 C-14.71259805 75.77778043 -13.53360392 73.10362136 -12.25 69.6171875 C-11.84523438 68.53695312 -11.44046875 67.45671875 -11.0234375 66.34375 C-6.28021057 52.50127141 -5.77880907 37.57647423 -11.875 23.9921875 C-13.61094219 20.73634832 -15.42905892 17.58035033 -17.38671875 14.453125 C-18.875 11.9921875 -18.875 11.9921875 -19.875 8.9921875 C-1.875 -0.0078125 -1.875 -0.0078125 0 0 Z " fill="#909090" transform="translate(453.875,230.0078125)"/>
<path d="M0 0 C2.375 0.6875 2.375 0.6875 3.375 1.6875 C3.52825468 3.39098473 3.59704137 5.10236388 3.625 6.8125 C3.65078125 7.74320313 3.6765625 8.67390625 3.703125 9.6328125 C3.29576312 13.42515766 1.96779949 16.22831429 0.375 19.6875 C-0.57584692 22.20444773 -1.51340887 24.72339885 -2.4375 27.25 C-5.24913147 34.84629091 -8.37474087 42.26744065 -11.625 49.6875 C-12.34042969 51.43546875 -12.34042969 51.43546875 -13.0703125 53.21875 C-14.57955491 56.58610493 -16.29450257 59.54089073 -18.3125 62.625 C-18.93511719 63.58277344 -19.55773437 64.54054688 -20.19921875 65.52734375 C-20.66972656 66.24019531 -21.14023438 66.95304687 -21.625 67.6875 C-20.26347204 67.79962327 -20.26347204 67.79962327 -18.47265625 65.73046875 C-6.84140215 53.8055785 -0.11965059 39.27068939 5.375 23.6875 C5.9375 22.375 6.5 21.0625 7.0625 19.75 C8.91113467 14.92070155 9.27359581 9.77046681 9.84765625 4.6640625 C10.375 1.6875 10.375 1.6875 12.375 -0.3125 C17.58373165 -1.03094574 20.38427262 -0.71918753 24.6875 2.375 C30.10940155 6.97507789 30.10940155 6.97507789 31.375 10.6875 C31.1637668 13.27721906 30.80172175 15.82612142 30.4375 18.3984375 C30.10865814 20.88864585 30.10865814 20.88864585 32.3125 22.875 C32.993125 23.473125 33.67375 24.07125 34.375 24.6875 C35.52078656 33.03537348 31.81467328 40.82618676 27.375 47.6875 C26.70082031 48.26628906 26.02664062 48.84507813 25.33203125 49.44140625 C22.69208861 52.47128054 22.55197668 54.85266732 22 58.8125 C19.72608757 72.86482275 15.73115967 88.33134033 5.375 98.6875 C7.93990126 97.5882566 9.50343192 96.55906808 11.5 94.5625 C12.11875 93.94375 12.7375 93.325 13.375 92.6875 C14.035 92.6875 14.695 92.6875 15.375 92.6875 C15.83899775 111.55674204 13.44765781 130.32403654 1.16796875 145.4375 C-0.39690073 147.40125778 -1.37250461 149.13071704 -2.4375 151.375 C-5.08110705 154.16967031 -5.99842087 154.16512145 -9.75 154.375 C-16.82068242 153.97745159 -22.72562591 151.42579775 -27.875 146.5625 C-29.625 143.6875 -29.625 143.6875 -30.94140625 141.06640625 C-34.37741492 133.9122032 -34.37741492 133.9122032 -40.484375 129.25390625 C-44.31870814 128.2393473 -48.19799716 128.03482643 -52.1484375 127.86328125 C-54.625 127.6875 -54.625 127.6875 -55.625 126.6875 C-55.98068893 121.35216605 -55.54200971 116.93243225 -54.21875 111.75390625 C-52.81282908 105.8671311 -51.9768068 100.05352946 -51.29638672 94.04492188 C-49.24929526 76.21648684 -45.42516637 63.35942804 -33.92578125 49.484375 C-32.02593884 47.17488915 -30.33524339 44.86403835 -28.6875 42.375 C-28.006875 41.488125 -27.32625 40.60125 -26.625 39.6875 C-25.635 39.6875 -24.645 39.6875 -23.625 39.6875 C-23.955 44.3075 -24.285 48.9275 -24.625 53.6875 C-16.03507279 34.01984037 -16.03507279 34.01984037 -10.625 13.375 C-9.78183502 8.74132341 -8.29579842 5.57229771 -5.625 1.6875 C-2.625 -0.3125 -2.625 -0.3125 0 0 Z " fill="#FAFAFA" transform="translate(93.625,54.3125)"/>
<path d="M0 0 C3.16590139 3.09193173 3.43478992 5.89167736 3.8125 10.1875 C6.56897348 32.07982242 18.79435309 57.07143217 36.265625 70.77734375 C37.12414062 71.38255859 37.12414062 71.38255859 38 72 C37.13375 71.05125 36.2675 70.1025 35.375 69.125 C29.24679626 61.91534854 25.45809323 54.14277383 22.21875 45.296875 C21.04217634 42.1140924 19.76425563 38.99772972 18.4375 35.875 C16.42529218 31.09126065 14.56799534 26.27525595 12.84765625 21.37890625 C12.20821176 19.58433623 11.49594812 17.81547809 10.75 16.0625 C9.53396257 11.09701381 9.8518635 6.08601992 10 1 C14.6796875 -0.171875 14.6796875 -0.171875 17.5625 1.375 C22.53168363 6.72642853 24.31327517 13.15108426 25.41015625 20.25 C27.23306809 28.74887376 30.73836818 36.98228399 33.65820312 45.15429688 C33.96048828 46.00958984 34.26277344 46.86488281 34.57421875 47.74609375 C34.84838623 48.51622803 35.12255371 49.2863623 35.4050293 50.07983398 C36 52 36 52 36 54 C36.66 54 37.32 54 38 54 C38 52.35 38 50.7 38 49 C40.55624717 50.27812358 40.97643615 51.49324829 42.3125 54 C43.62726028 56.46566319 44.9387538 58.9003683 46.40234375 61.28125 C49.65254369 66.63230381 50.7017691 70.73715115 51 77 C50.67 76.34 50.34 75.68 50 75 C49.01 75 48.02 75 47 75 C47.0825 76.27875 47.165 77.5575 47.25 78.875 C47.27453813 82.77656317 46.5550178 85.55502956 45 89.125 C42.35849644 95.24762789 42.27962845 99.61739104 44.625 105.875 C46.32847986 109.4552232 46.32847986 109.4552232 49.9375 111.125 C52.75487052 111.01000528 55.27641617 110.72094866 58 110 C59.22517308 115.66642551 59.09228867 121.23708518 59 127 C58.48050781 127.21914062 57.96101563 127.43828125 57.42578125 127.6640625 C49.92021611 131.07694425 46.76112319 135.44756843 43.0625 142.625 C40.04506627 148.31259249 37.07853055 150.60066793 31.25 153.25 C22.54779756 155.25820056 22.54779756 155.25820056 18 154 C14.62264464 151.11603221 12.3535709 147.74143895 10 144 C9.52820313 143.28199219 9.05640625 142.56398437 8.5703125 141.82421875 C-0.78656076 126.39409545 -2.34305526 110.49581813 -2 93 C0.64 94.98 3.28 96.96 6 99 C4.48503542 95.97007083 3.17901463 93.87732801 1.1875 91.25 C-2.8307246 85.33564496 -4.57260545 78.73343545 -6.46362305 71.91333008 C-6.98903516 70.0391131 -7.5585574 68.17744073 -8.12890625 66.31640625 C-8.89776267 63.38923538 -9.16256991 61.05909704 -9.1875 58.0625 C-9.60010636 53.00425161 -11.44188482 50.66203678 -15.11328125 47.27734375 C-20.43015762 40.85966482 -21.64933399 34.06998008 -21.5 25.9375 C-21.51546875 25.09123047 -21.5309375 24.24496094 -21.546875 23.37304688 C-21.50312603 16.28024466 -19.73250162 11.00575178 -14.9296875 5.72265625 C-14.25164062 5.17480469 -13.57359375 4.62695312 -12.875 4.0625 C-12.19179688 3.49660156 -11.50859375 2.93070313 -10.8046875 2.34765625 C-7.19241822 -0.34981756 -4.48237162 -0.39319049 0 0 Z " fill="#FBFBFB" transform="translate(391,54)"/>
<path d="M0 0 C13.29947503 9.68727193 19.33276665 21.66547145 22.1484375 37.7578125 C23.09856438 44.63373073 23.08539364 51.45504898 22.8984375 58.3828125 C24.8165625 58.228125 24.8165625 58.228125 26.7734375 58.0703125 C32.63203562 58.02374177 36.94046524 60.48462412 41.8984375 63.3828125 C42.3315625 62.4340625 42.7646875 61.4853125 43.2109375 60.5078125 C44.8984375 57.3828125 44.8984375 57.3828125 47.8984375 55.3828125 C51.90393937 54.93775674 54.22635381 55.03962083 57.8359375 56.8828125 C60.35590192 59.93731482 60.53019345 61.61728276 60.2421875 65.4765625 C59.72596528 68.33924934 59.25883611 69.61251354 56.8984375 71.3828125 C54.14343377 71.70884844 51.6913399 71.56595364 48.8984375 71.3828125 C49.38441406 72.09050781 49.87039062 72.79820312 50.37109375 73.52734375 C53.29778663 78.99898696 52.61252346 85.2120912 51.27734375 91.140625 C49.05472919 97.60102466 45.43845042 101.4934552 39.8984375 105.3828125 C39.14046875 105.93710938 38.3825 106.49140625 37.6015625 107.0625 C34.10062238 108.77249677 31.46096615 108.67895816 27.5859375 108.5703125 C26.33167969 108.54324219 25.07742187 108.51617187 23.78515625 108.48828125 C22.35623047 108.43607422 22.35623047 108.43607422 20.8984375 108.3828125 C20.87338135 107.7436792 20.8483252 107.1045459 20.82250977 106.44604492 C20.70486603 103.48734505 20.58291972 100.52883656 20.4609375 97.5703125 C20.42162109 96.56548828 20.38230469 95.56066406 20.34179688 94.52539062 C19.64749924 77.91565492 18.32136424 60.53196511 6.8984375 47.3828125 C-1.72526167 39.83707572 -8.23228373 36.93413915 -19.66015625 37.13671875 C-29.12492136 37.81354077 -36.18614074 42.93214427 -42.4140625 49.8828125 C-44.82619121 52.83389095 -46.56464268 55.88205068 -48.1015625 59.3828125 C-48.4315625 59.3828125 -48.7615625 59.3828125 -49.1015625 59.3828125 C-49.72797552 42.64366447 -47.68392145 21.53743737 -36.1015625 8.3828125 C-26.78775557 -1.41572787 -12.97740396 -7.83024796 0 0 Z " fill="#A9A9A9" transform="translate(174.1015625,90.6171875)"/>
<path d="M0 0 C3.95896124 -0.46083147 6.07548398 0.0232458 9.42578125 2.26171875 C18.54241817 10.10844291 22.33432617 18.0014618 23.4140625 29.94604492 C23.78933955 32.5762629 24.48418814 34.89749433 25.29296875 37.42578125 C27.14821303 44.07573332 27.18450404 50.43992295 27.08984375 57.3046875 C27.09306641 58.49255859 27.09628906 59.68042969 27.09960938 60.90429688 C27.06477253 66.55103248 26.90142152 71.18702189 24.77734375 76.4921875 C21.96810272 78.8692376 18.77680529 78.85215649 15.1796875 78.73828125 C5.14907983 77.71075559 -3.66020223 74.76674868 -10.375 67.00390625 C-12.93710734 62.1342773 -13.27119409 57.54323815 -13.78515625 52.1171875 C-14.01796496 49.95527599 -14.25495304 47.79381051 -14.49609375 45.6328125 C-14.61307617 44.58158203 -14.73005859 43.53035156 -14.85058594 42.44726562 C-15.34261166 38.53947077 -16.09506415 34.71787872 -16.91015625 30.8671875 C-20.34507039 13.04276817 -20.34507039 13.04276817 -16.96875 7.39453125 C-12.23052213 2.92014902 -6.19681631 1.37222997 0 0 Z " fill="#FBFBFB" transform="translate(302.22265625,289.5078125)"/>
<path d="M0 0 C2.66636347 1.6027302 3.31967869 2.56194105 4.30761719 5.55639648 C4.93394117 9.11736831 5.35858961 12.65201972 5.71484375 16.25 C6.0019987 18.68626936 6.28975657 21.12246773 6.578125 23.55859375 C6.70936768 24.75935547 6.84061035 25.96011719 6.97583008 27.19726562 C7.52245958 31.83063117 8.24784349 36.42613921 9.00585938 41.02905273 C9.68696031 45.81059937 9.94785048 50.17597981 8.40234375 54.8125 C-0.41442131 54.94945355 -9.11999264 54.53885274 -17.91015625 53.875 C-19.13283203 53.78798828 -20.35550781 53.70097656 -21.61523438 53.61132812 C-24.94501539 53.36715624 -28.27136163 53.09999774 -31.59765625 52.8125 C-32.34853516 52.75030273 -33.09941406 52.68810547 -33.87304688 52.62402344 C-37.53634098 52.22888598 -39.76158711 51.44867465 -42.47265625 48.9375 C-43.33503906 48.16792969 -43.33503906 48.16792969 -44.21484375 47.3828125 C-48.26293148 42.78583151 -47.22484069 34.92046941 -47.49365234 29.0703125 C-47.56264368 27.57258517 -47.63842297 26.07515417 -47.72119141 24.578125 C-47.83322202 22.42713724 -47.90804223 20.2778788 -47.97265625 18.125 C-48.02164063 16.84238281 -48.070625 15.55976563 -48.12109375 14.23828125 C-47.45178936 9.85783384 -46.0737725 8.47735856 -42.59765625 5.8125 C-40.34375 4.95703125 -40.34375 4.95703125 -38.03515625 4.625 C-37.16890625 4.48578125 -36.30265625 4.3465625 -35.41015625 4.203125 C-34.48203125 4.07421875 -33.55390625 3.9453125 -32.59765625 3.8125 C-24.0869502 2.56782983 -24.0869502 2.56782983 -15.84765625 0.1875 C-10.15172134 -1.81738684 -5.85686921 -1.93321199 0 0 Z " fill="#FCFCFC" transform="translate(275.59765625,301.1875)"/>
<path d="M0 0 C10.28169631 18.19235154 10.28169631 18.19235154 12 29 C12.12761719 29.77472656 12.25523437 30.54945313 12.38671875 31.34765625 C13.18351584 37.21498028 13.16460045 43.09084397 13 49 C12.99484375 49.86367188 12.9896875 50.72734375 12.984375 51.6171875 C12.6313346 60.11537425 9.46622226 67.37091276 6 75 C5.42765625 76.27230469 5.42765625 76.27230469 4.84375 77.5703125 C-1.07917316 89.37385222 -10.66489584 96.87167133 -22 103 C-23.08474609 103.5878125 -23.08474609 103.5878125 -24.19140625 104.1875 C-26.97509306 105.43805477 -29.00121111 105.44662813 -32 105 C-34.75613818 102.06011927 -35.16677466 99.57695599 -35.1875 95.6875 C-35.125625 94.470625 -35.06375 93.25375 -35 92 C-34.32453125 91.74605469 -33.6490625 91.49210937 -32.953125 91.23046875 C-32.06109375 90.88628906 -31.1690625 90.54210937 -30.25 90.1875 C-29.36828125 89.85105469 -28.4865625 89.51460938 -27.578125 89.16796875 C-25.06869674 88.03112171 -23.18254368 86.6558864 -21 85 C-20.34 85 -19.68 85 -19 85 C-19 84.34 -19 83.68 -19 83 C-18.34 83 -17.68 83 -17 83 C-17 82.34 -17 81.68 -17 81 C-16.34 81 -15.68 81 -15 81 C-14.7525 80.443125 -14.505 79.88625 -14.25 79.3125 C-13 77 -13 77 -11.0859375 74.75390625 C-8.83759805 71.78559293 -7.65860392 69.11143386 -6.375 65.625 C-5.97023438 64.54476562 -5.56546875 63.46453125 -5.1484375 62.3515625 C-0.40521057 48.50908391 0.09619093 33.58428673 -6 20 C-7.73594219 16.74416082 -9.55405892 13.58816283 -11.51171875 10.4609375 C-13 8 -13 8 -14 5 C-12.23244474 4.15973604 -10.46082737 3.32801278 -8.6875 2.5 C-7.70136719 2.0359375 -6.71523438 1.571875 -5.69921875 1.09375 C-3 0 -3 0 0 0 Z " fill="#EEEEEE" transform="translate(448,234)"/>
<path d="M0 0 C8.3671502 0.39778255 16.84230196 1.60679462 23.125 7.4375 C26.52357142 14.23464284 25.2997386 24.30210465 25.4375 31.8125 C25.467229 32.66827637 25.49695801 33.52405273 25.52758789 34.40576172 C25.58043963 40.08593325 24.7718067 43.04459709 21.125 47.4375 C19.21594391 49.34655609 15.8224989 48.70412091 13.28125 48.7890625 C12.59695923 48.81221527 11.91266846 48.83536804 11.2076416 48.85922241 C9.75845891 48.90691301 8.30919343 48.95214081 6.85986328 48.99511719 C4.63412926 49.06222475 2.40894128 49.1399592 0.18359375 49.21875 C-1.2213338 49.26366267 -2.62628135 49.30795446 -4.03125 49.3515625 C-5.31837891 49.3923291 -6.60550781 49.4330957 -7.93164062 49.47509766 C-10.875 49.4375 -10.875 49.4375 -11.875 48.4375 C-12.57076726 39.3439837 -11.28523719 30.39864683 -9.875 21.4375 C-9.70629395 20.31794922 -9.70629395 20.31794922 -9.53417969 19.17578125 C-9.1828687 16.86467753 -8.81324798 14.55724617 -8.4375 12.25 C-8.27254028 11.17165894 -8.27254028 11.17165894 -8.10424805 10.0715332 C-7.08449235 4.09867843 -6.36471653 0.71859703 0 0 Z " fill="#FBFBFB" transform="translate(198.875,303.5625)"/>
<path d="M0 0 C3.90683975 1.662485 5.38903002 3.14768048 7 7 C8.3454354 14.27951361 5.89992922 19.9503537 2 26 C-3.17218297 33.25509829 -9.00299669 37.24888766 -17 41 C-17.74121094 41.37898438 -18.48242188 41.75796875 -19.24609375 42.1484375 C-28.0438826 46.44240417 -39.17471555 49.6345862 -49 48 C-52.85544798 46.00342873 -54.59805092 44.60292362 -57 41 C-57.3359375 38.6953125 -57.3359375 38.6953125 -57.375 36.125 C-57.40335937 35.28195313 -57.43171875 34.43890625 -57.4609375 33.5703125 C-56.81798807 29.98505214 -55.70170517 28.43927839 -53 26 C-50.28338218 25.56522121 -48.08178385 25.40052899 -45.375 25.4375 C-38.51719123 25.27377544 -33.13564998 24.27312877 -27 21 C-25.906875 20.4225 -24.81375 19.845 -23.6875 19.25 C-20.15184071 16.28991316 -18.25010846 12.97710254 -16 9 C-15.11292713 7.51556303 -14.21734096 6.03617372 -13.3125 4.5625 C-12.91675781 3.90378906 -12.52101563 3.24507812 -12.11328125 2.56640625 C-9.36928182 -1.29444909 -4.24589004 -0.41136651 0 0 Z " fill="#FAFAFA" transform="translate(456,189)"/>
<path d="M0 0 C1.13566406 -0.02578125 2.27132812 -0.0515625 3.44140625 -0.078125 C6.4375 0.25 6.4375 0.25 8.10571289 1.50805664 C12.65157813 7.45393171 8.76420223 20.00273472 7.83837891 26.97436523 C7.56086517 29.07487406 7.29744458 31.17683855 7.03515625 33.27929688 C6.86021093 34.63031684 6.68445851 35.9812326 6.5078125 37.33203125 C6.27215576 39.14537964 6.27215576 39.14537964 6.03173828 40.99536133 C5.31752363 44.90710967 4.60220973 48.10651505 1.72265625 50.93359375 C-1.14007454 52.58272243 -3.94637153 53.41930178 -7.125 54.3125 C-10.7888302 55.34802068 -13.38128909 56.12919273 -16.5625 58.25 C-18.94171055 58.02694901 -20.26117835 57.47019659 -22.1875 56.0625 C-27.0783322 49.61549391 -26.05335241 40.86588189 -25.5625 33.25 C-23.79774767 21.87561974 -19.77783818 8.77482872 -10.5625 1.25 C-7.15466168 -0.0556004 -3.61735209 0.04938365 0 0 Z " fill="#FBFBFB" transform="translate(176.5625,303.75)"/>
<path d="M0 0 C2.64624923 2.12725119 3.97044081 3.68085369 5.05078125 6.921875 C6.15041079 19.44073438 2.92897068 30.10540087 -4.94921875 39.921875 C-10.50870692 45.10796471 -15.9747552 48.51897747 -23.69140625 48.37890625 C-27.56328794 47.59515165 -29.77929542 45.10701245 -31.94921875 41.921875 C-34.67827685 33.73470069 -33.38209844 24.67712547 -29.94921875 16.921875 C-29.45615234 15.68824219 -29.45615234 15.68824219 -28.953125 14.4296875 C-26.030713 7.77589131 -21.96205956 3.04158525 -15.94921875 -1.078125 C-10.99908377 -2.89154079 -4.62005306 -2.55538005 0 0 Z " fill="#080808" transform="translate(387.94921875,291.078125)"/>
<path d="M0 0 C4.7888442 3.22968562 6.94312971 8.32686017 9.47265625 13.37890625 C11.9977159 17.71219276 14.76481728 20.20004651 19.375 22.125 C20.16132812 22.45886719 20.94765625 22.79273438 21.7578125 23.13671875 C24.14135344 24.09157356 24.14135344 24.09157356 27.25 24.9375 C30.86110929 26.33270132 32.62640816 27.94823907 35 31 C36.19524079 34.51932011 36.52581446 36.70621969 35.109375 40.19140625 C32.02031067 45.65592194 32.02031067 45.65592194 28.66015625 46.7890625 C17.6895853 47.65897561 4.60514492 40.85809977 -3.9375 34.25 C-8.20548039 30.24199812 -11.11315067 25.04246506 -14 20 C-14.39058594 19.32195312 -14.78117187 18.64390625 -15.18359375 17.9453125 C-16.13758606 15.67216336 -16.2668407 13.95874243 -16.25 11.5 C-16.25515625 10.7471875 -16.2603125 9.994375 -16.265625 9.21875 C-15.97250404 6.7703279 -15.21816769 5.12695946 -14 3 C-13.34 3 -12.68 3 -12 3 C-12 2.34 -12 1.68 -12 1 C-7.91911326 -0.36029558 -4.26314002 -0.62626659 0 0 Z " fill="#FAFAFA" transform="translate(50,189)"/>
<path d="M0 0 C3.43999478 1.14666493 4.0285717 1.9940017 6.14453125 4.83203125 C6.73645264 5.62464355 7.32837402 6.41725586 7.93823242 7.23388672 C8.55674072 8.0848291 9.17524902 8.93577148 9.8125 9.8125 C10.44325439 10.67891113 11.07400879 11.54532227 11.72387695 12.43798828 C21.63189547 26.26618627 25.56579025 39.26529504 27.22705078 56.11547852 C27.7563581 61.33506747 28.58184679 66.42242205 29.625 71.5625 C30.7452363 77.19745749 31.30700593 82.26922267 31 88 C27.37 88 23.74 88 20 88 C20.99 87.505 20.99 87.505 22 87 C21.67 81.39 21.34 75.78 21 70 C18.525 70.99 18.525 70.99 16 72 C12.58516877 71.86340675 10.73942481 71.71301678 8.25 69.3125 C5.4944873 64.2148015 4.42079118 59.79208818 5 54 C5.92457145 51.48148411 6.97486752 49.03890945 8.04296875 46.578125 C9.47562622 42.71872122 9.73583333 39.09458343 10 35 C10.99 35 11.98 35 13 35 C11.63214712 25.8809808 7.32594864 19.06627061 2.3203125 11.44140625 C0.92984549 8.87027642 0.52840139 7.08057859 0.3125 4.1875 C0.24675781 3.39730469 0.18101562 2.60710937 0.11328125 1.79296875 C0.07589844 1.20128906 0.03851563 0.60960938 0 0 Z " fill="#8D8D8D" transform="translate(428,94)"/>
<path d="M0 0 C0.45809672 6.62837911 -1.19404066 12.35959209 -3.0625 18.6875 C-3.37541992 19.75444092 -3.68833984 20.82138184 -4.01074219 21.9206543 C-6.7504409 30.87941434 -9.98124734 39.46748623 -17 46 C-14.43509874 44.9007566 -12.87156808 43.87156808 -10.875 41.875 C-10.25625 41.25625 -9.6375 40.6375 -9 40 C-8.34 40 -7.68 40 -7 40 C-6.49496865 60.53794171 -9.82000586 78.70884845 -23 95 C-23.76657347 96.21889943 -24.52018606 97.44624164 -25.25 98.6875 C-25.8275 99.450625 -26.405 100.21375 -27 101 C-28.32 101 -29.64 101 -31 101 C-29.32560306 95.0381321 -27.41596924 89.30694868 -24.96484375 83.6171875 C-22.30639608 76.40601366 -21.52271307 69.36285878 -20.9375 61.75 C-20.78283175 59.80705994 -20.62538887 57.86433828 -20.46484375 55.921875 C-20.399021 55.07206055 -20.33319824 54.22224609 -20.26538086 53.34667969 C-20.01717116 51.15183919 -19.59138909 49.12519916 -19 47 C-19.99 47 -20.98 47 -22 47 C-21.50866209 42.45348658 -20.53709392 39.92631406 -17.6875 36.375 C-11.7785888 28.28657238 -9.78382523 19.39965279 -8.4921875 9.59375 C-7.72613603 5.55678033 -6.85804288 3.5859805 -3.4375 1.25 C-1 0 -1 0 0 0 Z " fill="#919191" transform="translate(116,107)"/>
<path d="M0 0 C-0.4648608 31.26990376 -0.4648608 31.26990376 -7.375 39.25 C-10.44512231 41.29674821 -12.304789 42 -16 42 C-20.07019937 40.70944898 -21.67245985 38.2697936 -23.6875 34.6875 C-26.5356562 28.42155636 -28.50530506 21.93110108 -28 15 C-25.93561215 11.64820545 -23.36927734 9.94732809 -20 8 C-19.34257812 7.57074219 -18.68515625 7.14148438 -18.0078125 6.69921875 C-15.17997597 4.933338 -13.37496385 4 -10 4 C-10 3.34 -10 2.68 -10 2 C-8.71211992 1.46987262 -7.41953322 0.9511671 -6.125 0.4375 C-5.40570313 0.14746094 -4.68640625 -0.14257812 -3.9453125 -0.44140625 C-2 -1 -2 -1 0 0 Z " fill="#A9A9A9" transform="translate(353,257)"/>
<path d="M0 0 C10.77400294 2.74277209 19.5423786 10.1273332 26 19 C28.26376831 22.89110353 29.41359982 26.45040197 29 31 C19.65487547 33.33628113 14.45774464 31.81589883 6.1875 27.05859375 C-0.96788736 22.43740608 -10.13571866 15.54984179 -12.5859375 6.94140625 C-12.875 5 -12.875 5 -13 2 C-8.68639157 -0.87573895 -5.06232049 -0.5680729 0 0 Z " fill="#909090" transform="translate(118,387)"/>
<path d="M0 0 C1.69669132 1.69669132 1.21209414 3.80642509 1.25 6.125 C1.27578125 7.05570313 1.3015625 7.98640625 1.328125 8.9453125 C0.92076312 12.73765766 -0.40720051 15.54081429 -2 19 C-2.95084692 21.51694773 -3.88840887 24.03589885 -4.8125 26.5625 C-7.62413147 34.15879091 -10.74974087 41.57994065 -14 49 C-14.48210937 50.17304687 -14.96421875 51.34609375 -15.4609375 52.5546875 C-17.77162905 57.72735235 -20.89797281 62.2758118 -24 67 C-24.39703125 67.6496875 -24.7940625 68.299375 -25.203125 68.96875 C-27.08273565 72.01192914 -28.58373837 73.77990656 -32 75 C-31.0404746 70.0104679 -29.59281224 66.04540842 -27.1875 61.5625 C-24.22427682 55.88178435 -22.39521087 50.20735693 -20.73706055 44.05102539 C-19.28095753 38.67946832 -17.29605848 33.82373197 -14.97265625 28.76171875 C-11.87739388 21.70770879 -10.39653275 14.38449158 -8.83203125 6.87890625 C-8 3 -8 3 -7 0 C-4.31633121 -1.3418344 -2.84719317 -0.73004953 0 0 Z " fill="#8E8E8E" transform="translate(96,55)"/>
<path d="M0 0 C2.61981573 1.04890201 4.47310693 2.49735945 6.66015625 4.27734375 C9.10368243 6.25111954 11.48034146 8.09496722 14.09765625 9.83984375 C14.59525176 11.49849545 15.08452598 13.16069061 15.5078125 14.83984375 C16.87340033 19.47018129 19.05694572 23.64608756 22.22265625 27.27734375 C24.84043017 30.8549681 25.38304072 34.52394205 26.09765625 38.83984375 C25.39189453 38.22496094 25.39189453 38.22496094 24.671875 37.59765625 C24.04925781 37.05882812 23.42664063 36.52 22.78515625 35.96484375 C22.17027344 35.43117187 21.55539062 34.8975 20.921875 34.34765625 C18.96267413 32.67579905 18.96267413 32.67579905 16.09765625 30.83984375 C16.09765625 30.17984375 16.09765625 29.51984375 16.09765625 28.83984375 C15.55496094 28.60265625 15.01226562 28.36546875 14.453125 28.12109375 C11.47800533 26.50278654 9.04352876 24.47081869 6.41015625 22.33984375 C0.43878928 17.59939723 -5.88526765 13.72435568 -12.51635742 9.9765625 C-14.32414554 8.9526825 -16.1151746 7.89930331 -17.90234375 6.83984375 C-17.90234375 6.50984375 -17.90234375 6.17984375 -17.90234375 5.83984375 C-16.07703125 5.62328125 -16.07703125 5.62328125 -14.21484375 5.40234375 C-11.07563998 5.01203422 -7.99483035 4.51632519 -4.90234375 3.83984375 C-4.90234375 3.17984375 -4.90234375 2.51984375 -4.90234375 1.83984375 C-1.90234375 -0.16015625 -1.90234375 -0.16015625 0 0 Z " fill="#909090" transform="translate(349.90234375,79.16015625)"/>
<path d="M0 0 C0.99 0 1.98 0 3 0 C3.20753906 0.63164062 3.41507812 1.26328125 3.62890625 1.9140625 C6.0493964 8.94259875 9.12034079 15.25265748 12.70703125 21.73828125 C14.17770658 25.44829302 14.10023435 27.21090024 13 31 C10.86384137 34.69719763 9.65014212 35.78722621 5.5625 37.125 C2 37 2 37 -0.8125 34.9375 C-4.60460521 29.84524443 -5.63016062 25.30160618 -5 19 C-4.07542855 16.48148411 -3.02513248 14.03890945 -1.95703125 11.578125 C-0.52437378 7.71872122 -0.26416667 4.09458343 0 0 Z " fill="#0A0A0A" transform="translate(438,129)"/>
<path d="M0 0 C1.32 0 2.64 0 4 0 C4.03738281 0.71285156 4.07476562 1.42570313 4.11328125 2.16015625 C4.4254833 6.70851163 4.71539573 10.35110227 6.5625 14.5625 C8.78499333 19.87715797 9.17507767 24.93676333 7.0859375 30.3828125 C5.11251805 33.93496751 3.8352983 35.66936109 0 37.1875 C-3.5424839 36.96609476 -5.21279477 36.16782629 -8 34 C-10.04846266 30.92730601 -10.59054849 29.09394769 -10.5234375 25.4296875 C-9.60484411 21.16576894 -7.05747778 17.77542015 -4.7578125 14.12109375 C-2.22682356 9.62718228 -1.0380727 5.02229458 0 0 Z " fill="#0C0C0C" transform="translate(56,129)"/>
<path d="M0 0 C1.65 0 3.3 0 5 0 C5.33 0.99 5.66 1.98 6 3 C15.23478483 10.84324191 29.11637981 14.9973299 40.9375 15.625 C41.62134766 15.66367187 42.30519531 15.70234375 43.00976562 15.7421875 C44.67279513 15.83522412 46.33635847 15.91863787 48 16 C48.495 17.485 48.495 17.485 49 19 C48 21 48 21 45.4453125 22.09765625 C32.31945796 25.53538006 21.19504584 22.55280325 9.625 16.125 C5.16378227 12.51353803 0.97601103 8.98361898 0.125 3.0625 C0.08375 2.051875 0.0425 1.04125 0 0 Z " fill="#0A0A0A" transform="translate(295,48)"/>
<path d="M0 0 C10.39851616 3.80790733 20.61244484 11.83563391 25.37109375 22.0390625 C26.34233984 25.06706501 26.71927033 27.20912008 26.43359375 30.3515625 C25.11359375 30.6815625 23.79359375 31.0115625 22.43359375 31.3515625 C22.12808594 30.80628906 21.82257813 30.26101563 21.5078125 29.69921875 C13.23502141 16.06659118 -0.57394786 8.46713931 -15.56640625 4.3515625 C-15.19140625 2.4140625 -15.19140625 2.4140625 -14.56640625 0.3515625 C-10.17579744 -1.8437419 -4.63869704 -1.17203 0 0 Z " fill="#0D0D0D" transform="translate(120.56640625,387.6484375)"/>
<path d="M0 0 C0.66 1.65 1.32 3.3 2 5 C0.94941406 5.51949219 -0.10117188 6.03898437 -1.18359375 6.57421875 C-11.81066162 11.84403815 -22.01987837 17.10674264 -31.66088867 24.05444336 C-35.79190552 27 -35.79190552 27 -38 27 C-38.5 23.9375 -38.5 23.9375 -38 20 C-35.72954291 17.1635186 -32.90601884 15.15414413 -30 13 C-29.16726562 12.32582031 -28.33453125 11.65164062 -27.4765625 10.95703125 C-19.4496512 4.68379998 -10.45317095 -0.5000022 0 0 Z " fill="#8A8A8A" transform="translate(172,48)"/>
<path d="M0 0 C3.72447204 0.79810115 5.57473236 2.48044183 7.625 5.5625 C10.8749034 12.22058133 12.32801533 18.18083905 11.625 25.5625 C9.625 27.5625 9.625 27.5625 7.2265625 27.90625 C3.10662766 27.36187423 1.72169646 24.95400739 -0.79296875 21.84765625 C-4.5305002 16.44899971 -6.13780835 11.17350573 -5.375 4.5625 C-3.9283885 1.59313955 -3.22224615 0.76316356 0 0 Z " fill="#080808" transform="translate(108.375,307.4375)"/>
<path d="M0 0 C4.3925351 1.75701404 6.71169156 4.97625073 8.875 9.0625 C10.30091278 12.73482285 10.95604503 16.50126313 11.671875 20.36328125 C12.62835802 25.02251295 14.2988004 29.41079645 15.90966797 33.87744141 C16.45471556 35.39094833 16.99812565 36.90504579 17.54003906 38.41967773 C18.09053911 39.95608796 18.64577424 41.49081097 19.20605469 43.02368164 C20.30953579 46.0958259 21.1875 48.58451032 21.1875 51.875 C20.1975 51.875 19.2075 51.875 18.1875 51.875 C10.17543105 43.02967588 7.58499221 31.20098417 5.02514648 19.91870117 C3.96099632 15.36389251 2.81661668 11.8148647 0.1875 7.875 C0.1875 7.215 0.1875 6.555 0.1875 5.875 C-0.4725 5.875 -1.1325 5.875 -1.8125 5.875 C-2.4725 4.225 -3.1325 2.575 -3.8125 0.875 C-1.8125 -0.125 -1.8125 -0.125 0 0 Z " fill="#8C8C8C" transform="translate(404.8125,54.125)"/>
<path d="M0 0 C0.45807629 6.62808351 -1.19332687 12.3600101 -3.0625 18.6875 C-3.53405518 20.28899902 -3.53405518 20.28899902 -4.01513672 21.92285156 C-7.00108251 31.6580158 -10.27385464 40.99905461 -19 47 C-19.99 47 -20.98 47 -22 47 C-21.50866209 42.45348658 -20.53709392 39.92631406 -17.6875 36.375 C-11.7785888 28.28657238 -9.78382523 19.39965279 -8.4921875 9.59375 C-7.72613603 5.55678033 -6.85804288 3.5859805 -3.4375 1.25 C-1 0 -1 0 0 0 Z " fill="#929292" transform="translate(116,107)"/>
<path d="M0 0 C11.68388658 -0.76980219 11.68388658 -0.76980219 16.3125 1.9375 C18.60277184 6.09391927 18.76821019 9.35697136 18 14 C16.23791943 18.26608979 14.09757145 19.99105178 10 22 C6.66796875 22.29296875 6.66796875 22.29296875 3.1875 22.1875 C1.44533203 22.14689453 1.44533203 22.14689453 -0.33203125 22.10546875 C-1.21246094 22.07066406 -2.09289062 22.03585938 -3 22 C-2.21367188 21.39800781 -1.42734375 20.79601562 -0.6171875 20.17578125 C2.45488851 17.62183149 3.6721916 15.76212379 5 12 C4.90415933 6.53708189 3.46400127 4.07734556 0 0 Z " fill="#929292" transform="translate(80,215)"/>
<path d="M0 0 C4.17427329 0.11106296 8.13773685 0.81413405 12.17578125 1.8515625 C12.86575195 2.0276001 13.55572266 2.2036377 14.26660156 2.38500977 C22.83171039 4.71741911 30.00115137 7.95817085 35.36328125 15.2265625 C21.57859385 15.59968186 21.57859385 15.59968186 15.36328125 13.2265625 C14.44933594 12.88496094 13.53539062 12.54335938 12.59375 12.19140625 C5.92945466 9.58436744 0.12793457 6.46270925 -5.63671875 2.2265625 C-3.63671875 0.2265625 -3.63671875 0.2265625 0 0 Z " fill="#8E8E8E" transform="translate(305.63671875,48.7734375)"/>
<path d="M0 0 C4.28170377 2.5191729 7.78368252 5.08177377 10.5625 9.25 C10.1875 11.9375 10.1875 11.9375 9.5625 14.25 C7.875 14.125 7.875 14.125 5.5625 13.25 C3.87517723 11.26739574 2.20883943 9.2667658 0.5625 7.25 C-4.42811144 3.93401595 -10.71167431 4.66529551 -16.4375 5.25 C-19.97174313 6.98611943 -21.8905657 8.67089309 -24.5625 11.5 C-26.4375 13.25 -26.4375 13.25 -30.4375 13.25 C-30.69921875 11.01171875 -30.69921875 11.01171875 -30.4375 8.25 C-28.64453125 6.08203125 -28.64453125 6.08203125 -26.25 4.0625 C-25.47269531 3.38832031 -24.69539062 2.71414062 -23.89453125 2.01953125 C-17.018785 -2.9323178 -7.6928012 -3.71477472 0 0 Z " fill="#131313" transform="translate(240.4375,252.75)"/>
<path d="M0 0 C1.98 0 3.96 0 6 0 C6 0.66 6 1.32 6 2 C6.99 2.33 7.98 2.66 9 3 C9.80456856 14.75564065 6.69120915 23.11921717 -1 32 C-4.15520066 35.31217582 -6.40665897 36.83741418 -11.0625 37.3125 C-14 37 -14 37 -15.875 35.625 C-17 34 -17 34 -17 32 C-15.86111328 31.80083984 -15.86111328 31.80083984 -14.69921875 31.59765625 C-13.70535156 31.42105469 -12.71148437 31.24445313 -11.6875 31.0625 C-10.70136719 30.88847656 -9.71523438 30.71445312 -8.69921875 30.53515625 C-5.91810787 30.04253153 -5.91810787 30.04253153 -3 29 C0.62214561 23.01955096 2.66896215 15.95720634 2 9 C1.37400383 7.31763529 0.71247732 5.6476038 0 4 C0 2.68 0 1.36 0 0 Z " fill="#888888" transform="translate(378,296)"/>
<path d="M0 0 C2.9719385 1.12451727 5.33440687 2.22293791 8 4 C8 4.66 8 5.32 8 6 C9.2065625 6.309375 9.2065625 6.309375 10.4375 6.625 C15.12398537 8.43381891 18.90034274 11.13535536 23 14 C24.18525787 14.79501959 25.37240936 15.58723314 26.5625 16.375 C27.366875 16.91125 28.17125 17.4475 29 18 C27.11327056 20.50420453 25.95458298 21.01145299 22.85546875 21.79296875 C13.28734421 22.82212805 13.28734421 22.82212805 9.95703125 20.6953125 C8.29877909 18.55247727 7.16684927 16.447448 6 14 C5.44570312 12.96488281 4.89140625 11.92976562 4.3203125 10.86328125 C0 2.6108871 0 2.6108871 0 0 Z " fill="#9A9A9A" transform="translate(130,177)"/>
<path d="M0 0 C2.475 0.99 2.475 0.99 5 2 C5.66 1.34 6.32 0.68 7 0 C14.66028854 9.3222464 14.66028854 9.3222464 14.25 14.3125 C11.97048543 21.03706797 7.10813709 23.94593146 1 27 C-1.04055005 27.07065617 -3.08334257 27.08421976 -5.125 27.0625 C-6.22070312 27.05347656 -7.31640625 27.04445313 -8.4453125 27.03515625 C-9.70988281 27.01775391 -9.70988281 27.01775391 -11 27 C-11 26.67 -11 26.34 -11 26 C-8.03 25.67 -5.06 25.34 -2 25 C-2 24.01 -2 23.02 -2 22 C-2.66 21.67 -3.32 21.34 -4 21 C-0.7 20.67 2.6 20.34 6 20 C5.71581603 13.84268061 5.13950575 10.28753492 1.05859375 5.60546875 C0 4 0 4 0 0 Z " fill="#E7E7E7" transform="translate(140,398)"/>
<path d="M0 0 C2.9375 1.5 2.9375 1.5 5 4 C5.85687749 7.98244012 5.59870531 11.00215782 3.5 14.5 C3.005 14.995 2.51 15.49 2 16 C1.34 15.67 0.68 15.34 0 15 C-0.639375 14.690625 -1.27875 14.38125 -1.9375 14.0625 C-5.20671676 12.37835803 -6.9357904 11.09631441 -9 8 C-8.625 5.3125 -8.625 5.3125 -8 3 C-8.66 2.67 -9.32 2.34 -10 2 C-6.2626144 -0.4915904 -4.42668417 -0.45793285 0 0 Z " fill="#BDBDBD" transform="translate(229,146)"/>
<path d="M0 0 C0.08636719 0.81082031 0.17273438 1.62164062 0.26171875 2.45703125 C1.27268362 10.42417639 3.26922935 16.89444826 7 24 C6.34 24.33 5.68 24.66 5 25 C4.72027344 24.48050781 4.44054687 23.96101563 4.15234375 23.42578125 C1.25807682 18.39105967 -1.484784 14.23687742 -7 12 C-11.98533911 11.0173377 -16.94074698 10.43625476 -22 10 C-21.360625 9.87625 -20.72125 9.7525 -20.0625 9.625 C-19.381875 9.41875 -18.70125 9.2125 -18 9 C-17.67 8.34 -17.34 7.68 -17 7 C-14 7 -14 7 -11.75 7.4375 C-7.78520732 6.80673753 -6.16282008 4.45024683 -3.55078125 1.53125 C-2 0 -2 0 0 0 Z " fill="#E6E6E6" transform="translate(326,273)"/>
<path d="M0 0 C0.31579746 12.84243014 -0.77722797 23.97679919 -5 36.1875 C-5.39179443 37.32131104 -5.39179443 37.32131104 -5.79150391 38.47802734 C-7.74681916 43.87340958 -7.74681916 43.87340958 -10 45 C-9.88406494 44.43829102 -9.76812988 43.87658203 -9.64868164 43.29785156 C-7.34237272 31.93343079 -5.51299427 20.8822248 -5.41625977 9.26074219 C-5.30399049 3.37904594 -5.30399049 3.37904594 -3.60180664 1.2565918 C-2 0 -2 0 0 0 Z " fill="#585858" transform="translate(109,147)"/>
<path d="M0 0 C4.7373412 -0.46444522 7.94841058 -0.66529126 12.0625 1.9375 C14.6783517 6.07223333 14.78885243 9.2322106 14 14 C12.26440552 18.20196558 10.08459816 20.05981587 6 22 C5.01 22 4.02 22 3 22 C5 17 5 17 6.09375 14.6875 C7.14864955 11.55917719 7.01789942 9.44856522 6.625 6.1875 C6.51414062 5.21167969 6.40328125 4.23585937 6.2890625 3.23046875 C6.19367188 2.49441406 6.09828125 1.75835937 6 1 C4.02 1 2.04 1 0 1 C0 0.67 0 0.34 0 0 Z " fill="#5C5C5C" transform="translate(84,215)"/>
<path d="M0 0 C1.61886861 2.42830291 3.00049543 4.80984179 4.375 7.375 C6.30019674 10.88834123 8.46001696 13.89557629 11 17 C11 17.66 11 18.32 11 19 C7.7 18.67 4.4 18.34 1 18 C1 17.34 1 16.68 1 16 C0.360625 15.71125 -0.27875 15.4225 -0.9375 15.125 C-3 14 -3 14 -4 12 C-4.25 9.0625 -4.25 9.0625 -4 6 C-2.5625 4.3125 -2.5625 4.3125 -1 3 C-0.67 2.01 -0.34 1.02 0 0 Z " fill="#D5D5D5" transform="translate(297,240)"/>
<path d="M0 0 C0.66 0.33 1.32 0.66 2 1 C-0.41051577 12.45703965 -3.65639609 23.13513631 -8 34 C-8.38542969 35.051875 -8.77085938 36.10375 -9.16796875 37.1875 C-9.50441406 38.095 -9.84085937 39.0025 -10.1875 39.9375 C-10.46980469 40.70964844 -10.75210938 41.48179688 -11.04296875 42.27734375 C-12 44 -12 44 -15 45 C-12.79724251 37.38402927 -10.25476712 29.93864526 -7.51757812 22.5 C-5.69521141 17.41801874 -4.37729885 12.46720981 -3.4753418 7.14111328 C-2.86043871 4.3713649 -1.66943126 2.27649717 0 0 Z " fill="#ECECEC" transform="translate(87,58)"/>
<path d="M0 0 C0.66 0 1.32 0 2 0 C2.24234375 1.00417969 2.4846875 2.00835937 2.734375 3.04296875 C6.1294905 17.62776238 6.1294905 17.62776238 11.1796875 31.67578125 C12 34 12 34 11 37 C2.495512 26.47898392 -1.14261405 13.40667149 0 0 Z " fill="#DBDBDB" transform="translate(57,272)"/>
<path d="M0 0 C0.33 0.99 0.66 1.98 1 3 C1.99 2.67 2.98 2.34 4 2 C4.99 2.66 5.98 3.32 7 4 C5.68 4 4.36 4 3 4 C3.66 6.64 4.32 9.28 5 12 C4.01 12.33 3.02 12.66 2 13 C0.78130071 15.50447516 0.78130071 15.50447516 0 18 C-3.875 16.25 -3.875 16.25 -5 14 C-5.04597565 9.3196785 -4.57574789 5.85489838 -1.9375 1.9375 C-1.298125 1.298125 -0.65875 0.65875 0 0 Z " fill="#E3E3E3" transform="translate(292,44)"/>
<path d="M0 0 C2.475 0.495 2.475 0.495 5 1 C1.94888502 6.76321719 -1.44308811 12.8143627 -8 15 C-13.26710098 15.53745928 -13.26710098 15.53745928 -15.875 13.625 C-17 12 -17 12 -17 10 C-16.24074219 9.86722656 -15.48148437 9.73445313 -14.69921875 9.59765625 C-13.70535156 9.42105469 -12.71148437 9.24445313 -11.6875 9.0625 C-10.70136719 8.88847656 -9.71523438 8.71445312 -8.69921875 8.53515625 C-5.91810787 8.04253153 -5.91810787 8.04253153 -3 7 C-1.62665383 4.71108972 -0.84749184 2.54247553 0 0 Z " fill="#858585" transform="translate(378,318)"/>
<path d="M0 0 C1.35088068 2.19887876 2.09402491 3.41062435 1.6796875 6.0078125 C1.41414063 6.70648438 1.14859375 7.40515625 0.875 8.125 C0.43800781 9.28902344 0.43800781 9.28902344 -0.0078125 10.4765625 C-0.33523437 11.30929688 -0.66265625 12.14203125 -1 13 C-1.32742187 13.91523437 -1.65484375 14.83046875 -1.9921875 15.7734375 C-3.9315325 21.02019256 -3.9315325 21.02019256 -5 23 C-5.99 23.33 -6.98 23.66 -8 24 C-5.69356492 15.86184696 -2.89571216 7.94317882 0 0 Z " fill="#DCDCDC" transform="translate(80,79)"/>
<path d="M0 0 C0.33 0 0.66 0 1 0 C1.88229454 5.73491451 -0.49896975 8.76938812 -3.6875 13.2421875 C-4.120625 13.82226562 -4.55375 14.40234375 -5 15 C-6.32 14.34 -7.64 13.68 -9 13 C-8.60167969 12.48050781 -8.20335937 11.96101563 -7.79296875 11.42578125 C-4.97131746 7.71163685 -2.38349708 4.01431087 0 0 Z " fill="#D8D8D8" transform="translate(389,320)"/>
<path d="M0 0 C-0.33 1.65 -0.66 3.3 -1 5 C-6.5 5.36666667 -6.5 5.36666667 -8.875 3.625 C-10 2 -10 2 -10 0 C-2.25 -1.125 -2.25 -1.125 0 0 Z " fill="#797979" transform="translate(371,328)"/>
<path d="M0 0 C2.31 0 4.62 0 7 0 C7 0.99 7 1.98 7 3 C3.5233662 5.14336161 0.78770805 5.21277626 -3.25 5.125 C-4.32765625 5.10695313 -5.4053125 5.08890625 -6.515625 5.0703125 C-7.33546875 5.04710937 -8.1553125 5.02390625 -9 5 C-9 4.67 -9 4.34 -9 4 C-4.545 3.505 -4.545 3.505 0 3 C0 2.01 0 1.02 0 0 Z " fill="#D0D0D0" transform="translate(138,420)"/>
<path d="M0 0 C0.515625 0.66 1.03125 1.32 1.5625 2 C4.61208585 5.75333644 7.7986681 9.37602035 11 13 C8 13 8 13 5.30078125 10.59375 C4.29697757 9.5700032 3.30114351 8.5383946 2.3125 7.5 C1.80138672 6.97535156 1.29027344 6.45070313 0.76367188 5.91015625 C-0.49772708 4.61339096 -1.74977212 3.30753883 -3 2 C-2.01 1.34 -1.02 0.68 0 0 Z " fill="#414141" transform="translate(420,114)"/>
<path d="M0 0 C0 0.33 0 0.66 0 1 C-0.60328125 1.02578125 -1.2065625 1.0515625 -1.828125 1.078125 C-5.5232244 1.34035786 -8.28918113 1.57350868 -11.5 3.5 C-13.69656386 7.16093977 -13.82022371 10.79323471 -14 15 C-14.33 15 -14.66 15 -15 15 C-15.32962807 10.28448734 -15.53938008 6.28423828 -13.6875 1.875 C-9.4337194 -1.09275391 -5.0254164 -0.389903 0 0 Z " fill="#BEBEBE" transform="translate(414,215)"/>
<path d="M0 0 C0.66 0.66 1.32 1.32 2 2 C1.8125 4 1.8125 4 1 6 C0.01 6.66 -0.98 7.32 -2 8 C-2 7.01 -2 6.02 -2 5 C-4.97 5 -7.94 5 -11 5 C-11 4.67 -11 4.34 -11 4 C-7.7 3.67 -4.4 3.34 -1 3 C-0.67 2.01 -0.34 1.02 0 0 Z " fill="#E1E1E1" transform="translate(147,415)"/>
<path d="M0 0 C2.95929119 2.75520215 5.03681826 5.46627288 7 9 C2.58110387 7.64978174 0.65654657 5.73884332 -2 2 C-1.34 1.34 -0.68 0.68 0 0 Z " fill="#343434" transform="translate(392,145)"/>
<path d="M0 0 C-1.0975223 2.99324263 -1.67682892 3.84610901 -4.625 5.25 C-5.40875 5.4975 -6.1925 5.745 -7 6 C-7 4.68 -7 3.36 -7 2 C-2.25 0 -2.25 0 0 0 Z " fill="#8B8B8B" transform="translate(377,326)"/>
<path d="M0 0 C2 4 2 4 1.125 7.75 C0.75375 8.8225 0.3825 9.895 0 11 C-0.99 10.67 -1.98 10.34 -3 10 C-2.01 6.7 -1.02 3.4 0 0 Z " fill="#CFCFCF" transform="translate(80,79)"/>
<path d="M0 0 C5.66153846 1.47692308 5.66153846 1.47692308 7.375 4.125 C7.684375 5.053125 7.684375 5.053125 8 6 C5.69 5.34 3.38 4.68 1 4 C0.67 2.68 0.34 1.36 0 0 Z " fill="#D3D3D3" transform="translate(81,315)"/>
<path d="M0 0 C2.83374881 3.20336822 3.5205537 5.78087253 4 10 C1.24049934 7.50754779 -0.62030099 5.79699009 -1 2 C-0.67 1.34 -0.34 0.68 0 0 Z " fill="#BFBFBF" transform="translate(65,299)"/>
<path d="M0 0 C1.98 0.66 3.96 1.32 6 2 C2.79619983 4.13586678 1.98060033 4.23132175 -1.6875 4.125 C-2.89986328 4.09792969 -2.89986328 4.09792969 -4.13671875 4.0703125 C-5.05904297 4.03550781 -5.05904297 4.03550781 -6 4 C-5.360625 3.87625 -4.72125 3.7525 -4.0625 3.625 C-3.0415625 3.315625 -3.0415625 3.315625 -2 3 C-1.67 2.34 -1.34 1.68 -1 1 C-0.67 0.67 -0.34 0.34 0 0 Z " fill="#B6B6B6" transform="translate(310,279)"/>
<path d="M0 0 C0.99 0.99 1.98 1.98 3 3 C0.69 4.65 -1.62 6.3 -4 8 C-4.33 7.01 -4.66 6.02 -5 5 C-3.35 3.35 -1.7 1.7 0 0 Z " fill="#E4E4E4" transform="translate(368,289)"/>
<path d="M0 0 C0.33 0.66 0.66 1.32 1 2 C0.35561283 3.67540664 -0.31246699 5.34183216 -1 7 C-1 7.99 -1 8.98 -1 10 C-1.99 10 -2.98 10 -4 10 C-3.52449439 8.51965236 -3.04448784 7.04074979 -2.5625 5.5625 C-2.29566406 4.73878906 -2.02882813 3.91507812 -1.75390625 3.06640625 C-1 1 -1 1 0 0 Z " fill="#A2A2A2" transform="translate(68,119)"/>
<path d="M0 0 C0.66 0.33 1.32 0.66 2 1 C1.6875 3.375 1.6875 3.375 1 6 C0.01 6.66 -0.98 7.32 -2 8 C-1.125 1.125 -1.125 1.125 0 0 Z " fill="#292929" transform="translate(70,101)"/>
<path d="M0 0 C0.598125 0.20625 1.19625 0.4125 1.8125 0.625 C0.8225 1.285 -0.1675 1.945 -1.1875 2.625 C-2.39200304 5.17683404 -2.39200304 5.17683404 -3.1875 7.625 C-3.5175 6.635 -3.8475 5.645 -4.1875 4.625 C-3.8575 3.965 -3.5275 3.305 -3.1875 2.625 C-3.8475 2.295 -4.5075 1.965 -5.1875 1.625 C-2.1875 -0.375 -2.1875 -0.375 0 0 Z " fill="#B7B7B7" transform="translate(224.1875,146.375)"/>
<path d="M0 0 C0.33 1.98 0.66 3.96 1 6 C-1.5 4.625 -1.5 4.625 -4 3 C-4 2.34 -4 1.68 -4 1 C-2 0 -2 0 0 0 Z " fill="#161616" transform="translate(419,110)"/>
<path d="M0 0 C1.2077558 3.62326739 0.54311128 4.64146369 -1 8 C-1.66 8 -2.32 8 -3 8 C-3.1875 5.125 -3.1875 5.125 -3 2 C-2.01 1.34 -1.02 0.68 0 0 Z " fill="#E5E5E5" transform="translate(84,73)"/>
<path d="M0 0 C1.32 0.66 2.64 1.32 4 2 C2.8125 3.5 2.8125 3.5 1 5 C-1.6875 5.1875 -1.6875 5.1875 -4 5 C-3.34 4.01 -2.68 3.02 -2 2 C-1.34 2 -0.68 2 0 2 C0 1.34 0 0.68 0 0 Z " fill="#7E7E7E" transform="translate(155,193)"/>
<path d="M0 0 C0.99 0 1.98 0 3 0 C2.39816251 2.02045442 1.72693904 4.02111039 1 6 C0.01 6.495 0.01 6.495 -1 7 C-0.67 4.69 -0.34 2.38 0 0 Z " fill="#AFAFAF" transform="translate(218,149)"/>
<path d="M0 0 C0.33 1.32 0.66 2.64 1 4 C-1.64 4.66 -4.28 5.32 -7 6 C-2.25 1.125 -2.25 1.125 0 0 Z " fill="#808080" transform="translate(149,56)"/>
<path d="M0 0 C0.33 0.66 0.66 1.32 1 2 C1.66 2.33 2.32 2.66 3 3 C2.01 4.98 1.02 6.96 0 9 C-0.33 9 -0.66 9 -1 9 C-0.67 6.03 -0.34 3.06 0 0 Z " fill="#979797" transform="translate(126,141)"/>
<path d="M0 0 C0.66 0.99 1.32 1.98 2 3 C-0.31 4.98 -2.62 6.96 -5 9 C-3.44455189 5.88910379 -1.80979645 2.96148509 0 0 Z " fill="#1E1E1E" transform="translate(75,116)"/>
<path d="" fill="#FFFFFF" transform="translate(0,0)"/>
<path d="" fill="#FFFFFF" transform="translate(0,0)"/>
<path d="" fill="#FFFFFF" transform="translate(0,0)"/>
<path d="" fill="#FFFFFF" transform="translate(0,0)"/>
<path d="" fill="#FFFFFF" transform="translate(0,0)"/>
<path d="" fill="#FFFFFF" transform="translate(0,0)"/>
<path d="" fill="#FFFFFF" transform="translate(0,0)"/>
<path d="" fill="#FFFFFF" transform="translate(0,0)"/>
<path d="" fill="#FFFFFF" transform="translate(0,0)"/>
<path d="" fill="#FFFFFF" transform="translate(0,0)"/>
<path d="" fill="#FFFFFF" transform="translate(0,0)"/>
<path d="" fill="#FFFFFF" transform="translate(0,0)"/>
<path d="" fill="#FFFFFF" transform="translate(0,0)"/>
<path d="" fill="#FFFFFF" transform="translate(0,0)"/>
<path d="" fill="#FFFFFF" transform="translate(0,0)"/>
<path d="" fill="#FFFFFF" transform="translate(0,0)"/>
<path d="" fill="#FFFFFF" transform="translate(0,0)"/>
<path d="" fill="#FFFFFF" transform="translate(0,0)"/>
<path d="" fill="#FFFFFF" transform="translate(0,0)"/>
<path d="" fill="#FFFFFF" transform="translate(0,0)"/>
<path d="" fill="#FFFFFF" transform="translate(0,0)"/>
<path d="" fill="#FFFFFF" transform="translate(0,0)"/>
<path d="" fill="#FFFFFF" transform="translate(0,0)"/>
<path d="" fill="#FFFFFF" transform="translate(0,0)"/>
<path d="" fill="#FFFFFF" transform="translate(0,0)"/>
<path d="" fill="#FFFFFF" transform="translate(0,0)"/>
<path d="" fill="#FFFFFF" transform="translate(0,0)"/>
<path d="" fill="#FFFFFF" transform="translate(0,0)"/>
<path d="" fill="#FFFFFF" transform="translate(0,0)"/>
<path d="" fill="#FFFFFF" transform="translate(0,0)"/>
<path d="" fill="#FFFFFF" transform="translate(0,0)"/>
<path d="" fill="#FFFFFF" transform="translate(0,0)"/>
<path d="" fill="#FFFFFF" transform="translate(0,0)"/>
<path d="" fill="#FFFFFF" transform="translate(0,0)"/>
<path d="" fill="#FFFFFF" transform="translate(0,0)"/>
<path d="" fill="#FFFFFF" transform="translate(0,0)"/>
<path d="" fill="#FFFFFF" transform="translate(0,0)"/>
<path d="" fill="#FFFFFF" transform="translate(0,0)"/>
<path d="" fill="#FFFFFF" transform="translate(0,0)"/>
<path d="" fill="#FFFFFF" transform="translate(0,0)"/>
<path d="" fill="#FFFFFF" transform="translate(0,0)"/>
<path d="" fill="#FFFFFF" transform="translate(0,0)"/>
</svg>
